<mxfile host="app.diagrams.net" agent="Mozilla/5.0 (Windows NT 10.0; Win64; x64) AppleWebKit/537.36 (KHTML, like Gecko) Chrome/136.0.0.0 Safari/537.36" version="27.0.3">
  <diagram name="Page-1" id="rG1aWR5nTBu968VJAlu0">
    <mxGraphModel dx="2316" dy="1307" grid="1" gridSize="10" guides="1" tooltips="1" connect="1" arrows="1" fold="1" page="1" pageScale="1" pageWidth="850" pageHeight="1100" math="0" shadow="0">
      <root>
        <mxCell id="0" />
        <mxCell id="1" parent="0" />
        <mxCell id="8IR9IB2kAjyOWW3M31Co-163" value="" style="rounded=0;whiteSpace=wrap;html=1;movable=1;resizable=1;rotatable=1;deletable=1;editable=1;locked=0;connectable=1;" vertex="1" parent="1">
          <mxGeometry x="80" y="1515.5" width="1650" height="900" as="geometry" />
        </mxCell>
        <mxCell id="8IR9IB2kAjyOWW3M31Co-363" value="Electronic Medical Record Module&lt;div&gt;&lt;br&gt;&lt;/div&gt;&lt;div&gt;&lt;br&gt;&lt;/div&gt;&lt;div&gt;&lt;br&gt;&lt;/div&gt;&lt;div&gt;&lt;br&gt;&lt;/div&gt;&lt;div&gt;&lt;br&gt;&lt;/div&gt;&lt;div&gt;&lt;br&gt;&lt;/div&gt;&lt;div&gt;&lt;br&gt;&lt;/div&gt;&lt;div&gt;&lt;br&gt;&lt;/div&gt;&lt;div&gt;&lt;br&gt;&lt;/div&gt;&lt;div&gt;&lt;br&gt;&lt;/div&gt;&lt;div&gt;&lt;br&gt;&lt;/div&gt;&lt;div&gt;&lt;br&gt;&lt;/div&gt;&lt;div&gt;&lt;br&gt;&lt;/div&gt;&lt;div&gt;&lt;br&gt;&lt;/div&gt;&lt;div&gt;&lt;br&gt;&lt;/div&gt;&lt;div&gt;&lt;br&gt;&lt;/div&gt;&lt;div&gt;&lt;br&gt;&lt;/div&gt;&lt;div&gt;&lt;br&gt;&lt;/div&gt;&lt;div&gt;&lt;br&gt;&lt;/div&gt;&lt;div&gt;&lt;br&gt;&lt;/div&gt;&lt;div&gt;&lt;br&gt;&lt;/div&gt;&lt;div&gt;&lt;br&gt;&lt;/div&gt;&lt;div&gt;&lt;br&gt;&lt;/div&gt;&lt;div&gt;&lt;br&gt;&lt;/div&gt;&lt;div&gt;&lt;br&gt;&lt;/div&gt;&lt;div&gt;&lt;br&gt;&lt;/div&gt;&lt;div&gt;&lt;br&gt;&lt;/div&gt;" style="html=1;outlineConnect=0;whiteSpace=wrap;fillColor=#99ffff;shape=mxgraph.archimate3.application;appType=collab;archiType=square;" vertex="1" parent="1">
          <mxGeometry x="1051" y="1660" width="439" height="410" as="geometry" />
        </mxCell>
        <mxCell id="8IR9IB2kAjyOWW3M31Co-169" value="&lt;div&gt;&lt;div&gt;Kubernetes Cluster&lt;/div&gt;&lt;/div&gt;&lt;div&gt;&lt;br&gt;&lt;/div&gt;&lt;div&gt;&lt;br&gt;&lt;/div&gt;&lt;div&gt;&lt;br&gt;&lt;/div&gt;&lt;div&gt;&lt;br&gt;&lt;/div&gt;&lt;div&gt;&lt;br&gt;&lt;/div&gt;&lt;div&gt;&lt;br&gt;&lt;/div&gt;&lt;div&gt;&lt;br&gt;&lt;/div&gt;&lt;div&gt;&lt;br&gt;&lt;/div&gt;&lt;div&gt;&lt;br&gt;&lt;/div&gt;&lt;div&gt;&lt;br&gt;&lt;/div&gt;&lt;div&gt;&lt;br&gt;&lt;/div&gt;&lt;div&gt;&lt;br&gt;&lt;/div&gt;&lt;div&gt;&lt;br&gt;&lt;/div&gt;&lt;div&gt;&lt;br&gt;&lt;/div&gt;&lt;div&gt;&lt;br&gt;&lt;/div&gt;&lt;div&gt;&lt;br&gt;&lt;/div&gt;&lt;div&gt;&lt;br&gt;&lt;/div&gt;&lt;div&gt;&lt;br&gt;&lt;/div&gt;&lt;div&gt;&lt;br&gt;&lt;/div&gt;&lt;div&gt;&lt;br&gt;&lt;/div&gt;&lt;div&gt;&lt;br&gt;&lt;/div&gt;&lt;div&gt;&lt;br&gt;&lt;/div&gt;&lt;div&gt;&lt;br&gt;&lt;/div&gt;&lt;div&gt;&lt;br&gt;&lt;/div&gt;&lt;div&gt;&lt;br&gt;&lt;/div&gt;&lt;div&gt;&lt;br&gt;&lt;/div&gt;&lt;div&gt;&lt;br&gt;&lt;/div&gt;&lt;div&gt;&lt;br&gt;&lt;/div&gt;&lt;div&gt;&lt;br&gt;&lt;/div&gt;&lt;div&gt;&lt;br&gt;&lt;/div&gt;&lt;div&gt;&lt;br&gt;&lt;/div&gt;&lt;div&gt;&lt;br&gt;&lt;/div&gt;&lt;div&gt;&lt;br&gt;&lt;/div&gt;" style="html=1;outlineConnect=0;whiteSpace=wrap;fillColor=#AFFFAF;shape=mxgraph.archimate3.application;appType=node;archiType=square;movable=1;resizable=1;rotatable=1;deletable=1;editable=1;locked=0;connectable=1;" vertex="1" parent="1">
          <mxGeometry x="130" y="1840" width="700" height="520" as="geometry" />
        </mxCell>
        <mxCell id="8IR9IB2kAjyOWW3M31Co-265" value="Kubernetes&amp;nbsp;&lt;div&gt;Control&amp;nbsp;&lt;/div&gt;&lt;div&gt;Plane&lt;/div&gt;" style="html=1;outlineConnect=0;whiteSpace=wrap;fillColor=#AFFFAF;shape=mxgraph.archimate3.application;appType=collab;archiType=square;" vertex="1" parent="1">
          <mxGeometry x="215" y="1896.5" width="524" height="65" as="geometry" />
        </mxCell>
        <mxCell id="8IR9IB2kAjyOWW3M31Co-69" value="" style="rounded=0;whiteSpace=wrap;html=1;movable=0;resizable=0;rotatable=0;deletable=0;editable=0;locked=1;connectable=0;" vertex="1" parent="1">
          <mxGeometry x="1550" y="270" width="1380" height="630" as="geometry" />
        </mxCell>
        <mxCell id="8IR9IB2kAjyOWW3M31Co-155" value="" style="html=1;outlineConnect=0;whiteSpace=wrap;fillColor=#99ffff;shape=mxgraph.archimate3.application;appType=collab;archiType=square;movable=0;resizable=0;rotatable=0;deletable=0;editable=0;locked=1;connectable=0;" vertex="1" parent="1">
          <mxGeometry x="2140" y="547.5" width="740" height="322.5" as="geometry" />
        </mxCell>
        <mxCell id="8IR9IB2kAjyOWW3M31Co-153" value="" style="html=1;outlineConnect=0;whiteSpace=wrap;fillColor=#99ffff;shape=mxgraph.archimate3.application;appType=collab;archiType=square;movable=0;resizable=0;rotatable=0;deletable=0;editable=0;locked=1;connectable=0;" vertex="1" parent="1">
          <mxGeometry x="1590" y="550" width="520" height="320" as="geometry" />
        </mxCell>
        <mxCell id="8IR9IB2kAjyOWW3M31Co-63" value="" style="rounded=0;whiteSpace=wrap;html=1;movable=0;resizable=0;rotatable=0;deletable=0;editable=0;locked=1;connectable=0;" vertex="1" parent="1">
          <mxGeometry x="250" y="60" width="670" height="800" as="geometry" />
        </mxCell>
        <mxCell id="8IR9IB2kAjyOWW3M31Co-53" value="" style="html=1;outlineConnect=0;whiteSpace=wrap;fillColor=#99ffff;shape=mxgraph.archimate3.application;appType=collab;archiType=square;movable=0;resizable=0;rotatable=0;deletable=0;editable=0;locked=1;connectable=0;" vertex="1" parent="1">
          <mxGeometry x="434" y="230" width="430" height="300" as="geometry" />
        </mxCell>
        <mxCell id="8IR9IB2kAjyOWW3M31Co-42" value="Core Application&lt;div&gt;&lt;br&gt;&lt;/div&gt;&lt;div&gt;&lt;br&gt;&lt;/div&gt;&lt;div&gt;&lt;br&gt;&lt;/div&gt;&lt;div&gt;&lt;br&gt;&lt;/div&gt;&lt;div&gt;&lt;br&gt;&lt;/div&gt;&lt;div&gt;&lt;br&gt;&lt;/div&gt;&lt;div&gt;&lt;br&gt;&lt;/div&gt;&lt;div&gt;&lt;br&gt;&lt;/div&gt;&lt;div&gt;&lt;br&gt;&lt;/div&gt;&lt;div&gt;&lt;br&gt;&lt;/div&gt;&lt;div&gt;&lt;br&gt;&lt;/div&gt;&lt;div&gt;&lt;br&gt;&lt;/div&gt;&lt;div&gt;&lt;br&gt;&lt;/div&gt;&lt;div&gt;&lt;br&gt;&lt;/div&gt;&lt;div&gt;&lt;br&gt;&lt;/div&gt;" style="html=1;outlineConnect=0;whiteSpace=wrap;fillColor=#99ffff;shape=mxgraph.archimate3.application;appType=comp;archiType=square;movable=0;resizable=0;rotatable=0;deletable=0;editable=0;locked=1;connectable=0;" vertex="1" parent="1">
          <mxGeometry x="450" y="250" width="190" height="260" as="geometry" />
        </mxCell>
        <mxCell id="8IR9IB2kAjyOWW3M31Co-38" value="Service&amp;nbsp;&lt;div&gt;Management&lt;div&gt;&lt;br&gt;&lt;/div&gt;&lt;div&gt;&lt;br&gt;&lt;/div&gt;&lt;div&gt;&lt;br&gt;&lt;/div&gt;&lt;div&gt;&lt;br&gt;&lt;/div&gt;&lt;div&gt;&lt;br&gt;&lt;/div&gt;&lt;div&gt;&lt;br&gt;&lt;/div&gt;&lt;div&gt;&lt;br&gt;&lt;div&gt;&lt;br&gt;&lt;/div&gt;&lt;div&gt;&lt;br&gt;&lt;/div&gt;&lt;div&gt;&lt;br&gt;&lt;/div&gt;&lt;/div&gt;&lt;/div&gt;&lt;div&gt;&lt;br&gt;&lt;/div&gt;&lt;div&gt;&lt;br&gt;&lt;/div&gt;&lt;div&gt;&lt;br&gt;&lt;/div&gt;&lt;div&gt;&lt;br&gt;&lt;/div&gt;" style="html=1;outlineConnect=0;whiteSpace=wrap;fillColor=#99ffff;shape=mxgraph.archimate3.application;appType=comp;archiType=square;movable=0;resizable=0;rotatable=0;deletable=0;editable=0;locked=1;connectable=0;" vertex="1" parent="1">
          <mxGeometry x="660" y="250" width="190" height="260" as="geometry" />
        </mxCell>
        <mxCell id="8IR9IB2kAjyOWW3M31Co-4" value="" style="html=1;outlineConnect=0;whiteSpace=wrap;fillColor=#AFFFAF;shape=mxgraph.archimate3.application;appType=collab;archiType=square;movable=0;resizable=0;rotatable=0;deletable=0;editable=0;locked=1;connectable=0;" vertex="1" parent="1">
          <mxGeometry x="300" y="575" width="570" height="220" as="geometry" />
        </mxCell>
        <mxCell id="8IR9IB2kAjyOWW3M31Co-8" value="VM Web Worker&lt;div&gt;&lt;br&gt;&lt;/div&gt;&lt;div&gt;&lt;br&gt;&lt;/div&gt;&lt;div&gt;&lt;br&gt;&lt;div&gt;&lt;br&gt;&lt;/div&gt;&lt;div&gt;&lt;br&gt;&lt;/div&gt;&lt;div&gt;&lt;br&gt;&lt;/div&gt;&lt;div&gt;&lt;br&gt;&lt;/div&gt;&lt;div&gt;&lt;br&gt;&lt;/div&gt;&lt;div&gt;&lt;br&gt;&lt;/div&gt;&lt;/div&gt;" style="html=1;outlineConnect=0;whiteSpace=wrap;fillColor=#AFFFAF;shape=mxgraph.archimate3.application;appType=node;archiType=square;movable=0;resizable=0;rotatable=0;deletable=0;editable=0;locked=1;connectable=0;" vertex="1" parent="1">
          <mxGeometry x="320" y="595" width="170" height="180" as="geometry" />
        </mxCell>
        <mxCell id="8IR9IB2kAjyOWW3M31Co-9" value="VM Database&lt;div&gt;&lt;br&gt;&lt;/div&gt;&lt;div&gt;&lt;br&gt;&lt;/div&gt;&lt;div&gt;&lt;br&gt;&lt;div&gt;&lt;br&gt;&lt;/div&gt;&lt;div&gt;&lt;br&gt;&lt;/div&gt;&lt;div&gt;&lt;br&gt;&lt;/div&gt;&lt;div&gt;&lt;br&gt;&lt;/div&gt;&lt;div&gt;&lt;br&gt;&lt;/div&gt;&lt;/div&gt;" style="html=1;outlineConnect=0;whiteSpace=wrap;fillColor=#AFFFAF;shape=mxgraph.archimate3.application;appType=node;archiType=square;movable=0;resizable=0;rotatable=0;deletable=0;editable=0;locked=1;connectable=0;" vertex="1" parent="1">
          <mxGeometry x="500" y="595" width="170" height="180" as="geometry" />
        </mxCell>
        <mxCell id="8IR9IB2kAjyOWW3M31Co-10" value="VM Web Worker&lt;div&gt;&lt;br&gt;&lt;/div&gt;&lt;div&gt;&lt;br&gt;&lt;div&gt;&lt;br&gt;&lt;/div&gt;&lt;div&gt;&lt;br&gt;&lt;/div&gt;&lt;div&gt;&lt;br&gt;&lt;div&gt;&lt;br&gt;&lt;/div&gt;&lt;div&gt;&lt;br&gt;&lt;/div&gt;&lt;div&gt;&lt;br&gt;&lt;/div&gt;&lt;div&gt;&lt;br&gt;&lt;/div&gt;&lt;div&gt;&lt;br&gt;&lt;/div&gt;&lt;/div&gt;&lt;/div&gt;" style="html=1;outlineConnect=0;whiteSpace=wrap;fillColor=#AFFFAF;shape=mxgraph.archimate3.application;appType=node;archiType=square;movable=0;resizable=0;rotatable=0;deletable=0;editable=0;locked=1;connectable=0;" vertex="1" parent="1">
          <mxGeometry x="680" y="595" width="170" height="180" as="geometry" />
        </mxCell>
        <mxCell id="8IR9IB2kAjyOWW3M31Co-11" value="Web Applicatiion" style="html=1;outlineConnect=0;whiteSpace=wrap;fillColor=#AFFFAF;shape=mxgraph.archimate3.application;appType=sysSw;archiType=square;movable=0;resizable=0;rotatable=0;deletable=0;editable=0;locked=1;connectable=0;" vertex="1" parent="1">
          <mxGeometry x="330" y="645" width="150" height="50" as="geometry" />
        </mxCell>
        <mxCell id="8IR9IB2kAjyOWW3M31Co-12" value="Web Application" style="html=1;outlineConnect=0;whiteSpace=wrap;fillColor=#AFFFAF;shape=mxgraph.archimate3.application;appType=sysSw;archiType=square;movable=0;resizable=0;rotatable=0;deletable=0;editable=0;locked=1;connectable=0;" vertex="1" parent="1">
          <mxGeometry x="690" y="645" width="150" height="50" as="geometry" />
        </mxCell>
        <mxCell id="8IR9IB2kAjyOWW3M31Co-13" value="Database Management System" style="html=1;outlineConnect=0;whiteSpace=wrap;fillColor=#AFFFAF;shape=mxgraph.archimate3.application;appType=sysSw;archiType=square;movable=0;resizable=0;rotatable=0;deletable=0;editable=0;locked=1;connectable=0;" vertex="1" parent="1">
          <mxGeometry x="510" y="665" width="150" height="80" as="geometry" />
        </mxCell>
        <mxCell id="8IR9IB2kAjyOWW3M31Co-14" value="Reverse Proxy" style="html=1;outlineConnect=0;whiteSpace=wrap;fillColor=#AFFFAF;shape=mxgraph.archimate3.application;appType=sysSw;archiType=square;movable=0;resizable=0;rotatable=0;deletable=0;editable=0;locked=1;connectable=0;" vertex="1" parent="1">
          <mxGeometry x="690" y="705" width="150" height="50" as="geometry" />
        </mxCell>
        <mxCell id="8IR9IB2kAjyOWW3M31Co-15" value="Cron Scheduler" style="html=1;outlineConnect=0;whiteSpace=wrap;fillColor=#AFFFAF;shape=mxgraph.archimate3.application;appType=sysSw;archiType=square;movable=0;resizable=0;rotatable=0;deletable=0;editable=0;locked=1;connectable=0;" vertex="1" parent="1">
          <mxGeometry x="330" y="705" width="150" height="50" as="geometry" />
        </mxCell>
        <mxCell id="8IR9IB2kAjyOWW3M31Co-19" value="Web Console" style="html=1;outlineConnect=0;whiteSpace=wrap;fillColor=#99ffff;shape=mxgraph.archimate3.application;appType=interface;archiType=square;movable=0;resizable=0;rotatable=0;deletable=0;editable=0;locked=1;connectable=0;" vertex="1" parent="1">
          <mxGeometry x="434" y="126" width="210" height="65" as="geometry" />
        </mxCell>
        <mxCell id="8IR9IB2kAjyOWW3M31Co-22" value="Identity Access Management Service" style="html=1;outlineConnect=0;whiteSpace=wrap;fillColor=#99ffff;shape=mxgraph.archimate3.application;appType=serv;archiType=rounded;movable=0;resizable=0;rotatable=0;deletable=0;editable=0;locked=1;connectable=0;" vertex="1" parent="1">
          <mxGeometry x="680" y="320" width="150" height="45" as="geometry" />
        </mxCell>
        <mxCell id="8IR9IB2kAjyOWW3M31Co-28" value="Pub/Sub Messaging Service" style="html=1;outlineConnect=0;whiteSpace=wrap;fillColor=#99ffff;shape=mxgraph.archimate3.application;appType=serv;archiType=rounded;movable=0;resizable=0;rotatable=0;deletable=0;editable=0;locked=1;connectable=0;" vertex="1" parent="1">
          <mxGeometry x="680" y="380" width="150" height="40" as="geometry" />
        </mxCell>
        <mxCell id="8IR9IB2kAjyOWW3M31Co-29" value="Patient Record Management Service" style="html=1;outlineConnect=0;whiteSpace=wrap;fillColor=#99ffff;shape=mxgraph.archimate3.application;appType=serv;archiType=rounded;movable=0;resizable=0;rotatable=0;deletable=0;editable=0;locked=1;connectable=0;" vertex="1" parent="1">
          <mxGeometry x="470" y="305" width="150" height="75" as="geometry" />
        </mxCell>
        <mxCell id="8IR9IB2kAjyOWW3M31Co-30" value="&lt;table cellpadding=&quot;0&quot; cellspacing=&quot;0&quot; style=&quot;font-size:1em;width:100%;height:100%;&quot;&gt;&lt;tbody&gt;&lt;tr style=&quot;height:20px;&quot;&gt;&lt;td align=&quot;center&quot;&gt;&lt;/td&gt;&lt;/tr&gt;&lt;tr&gt;&lt;td valign=&quot;top&quot; style=&quot;padding:4px;&quot;&gt;Patient Health Resume&lt;/td&gt;&lt;/tr&gt;&lt;/tbody&gt;&lt;/table&gt;" style="html=1;outlineConnect=0;whiteSpace=wrap;fillColor=#99ffff;shape=mxgraph.archimate3.businessObject;overflow=fill;movable=0;resizable=0;rotatable=0;deletable=0;editable=0;locked=1;connectable=0;" vertex="1" parent="1">
          <mxGeometry x="290" y="435" width="100" height="70" as="geometry" />
        </mxCell>
        <mxCell id="8IR9IB2kAjyOWW3M31Co-31" value="&lt;br&gt;&lt;div&gt;&lt;br&gt;&lt;/div&gt;&lt;div&gt;Health Data Visualization&lt;/div&gt;" style="html=1;outlineConnect=0;whiteSpace=wrap;fillColor=#99ffff;shape=mxgraph.archimate3.businessObject;overflow=fill;movable=0;resizable=0;rotatable=0;deletable=0;editable=0;locked=1;connectable=0;" vertex="1" parent="1">
          <mxGeometry x="290" y="340" width="100" height="70" as="geometry" />
        </mxCell>
        <mxCell id="8IR9IB2kAjyOWW3M31Co-33" value="Data Analysis &amp;amp; Visualization Services" style="html=1;outlineConnect=0;whiteSpace=wrap;fillColor=#99ffff;shape=mxgraph.archimate3.application;appType=serv;archiType=rounded;movable=0;resizable=0;rotatable=0;deletable=0;editable=0;locked=1;connectable=0;" vertex="1" parent="1">
          <mxGeometry x="470" y="400" width="150" height="75" as="geometry" />
        </mxCell>
        <mxCell id="8IR9IB2kAjyOWW3M31Co-34" value="&lt;div&gt;&lt;br&gt;&lt;/div&gt;&lt;div&gt;&lt;br&gt;&lt;/div&gt;&lt;div&gt;Health Program Report&lt;/div&gt;" style="html=1;outlineConnect=0;whiteSpace=wrap;fillColor=#99ffff;shape=mxgraph.archimate3.businessObject;overflow=fill;movable=0;resizable=0;rotatable=0;deletable=0;editable=0;locked=1;connectable=0;" vertex="1" parent="1">
          <mxGeometry x="290" y="250" width="100" height="70" as="geometry" />
        </mxCell>
        <mxCell id="8IR9IB2kAjyOWW3M31Co-35" value="ATNA" style="html=1;outlineConnect=0;whiteSpace=wrap;fillColor=#99ffff;shape=mxgraph.archimate3.application;appType=serv;archiType=rounded;movable=0;resizable=0;rotatable=0;deletable=0;editable=0;locked=1;connectable=0;" vertex="1" parent="1">
          <mxGeometry x="680" y="435" width="150" height="40" as="geometry" />
        </mxCell>
        <mxCell id="8IR9IB2kAjyOWW3M31Co-37" value="Administrator Console" style="html=1;outlineConnect=0;whiteSpace=wrap;fillColor=#99ffff;shape=mxgraph.archimate3.application;appType=interface;archiType=square;movable=0;resizable=0;rotatable=0;deletable=0;editable=0;locked=1;connectable=0;" vertex="1" parent="1">
          <mxGeometry x="661" y="127" width="190" height="67.5" as="geometry" />
        </mxCell>
        <mxCell id="8IR9IB2kAjyOWW3M31Co-39" style="edgeStyle=orthogonalEdgeStyle;rounded=0;orthogonalLoop=1;jettySize=auto;html=1;exitX=0.5;exitY=1;exitDx=0;exitDy=0;exitPerimeter=0;movable=0;resizable=0;rotatable=0;deletable=0;editable=0;locked=1;connectable=0;" edge="1" parent="1" source="8IR9IB2kAjyOWW3M31Co-28" target="8IR9IB2kAjyOWW3M31Co-28">
          <mxGeometry relative="1" as="geometry" />
        </mxCell>
        <mxCell id="8IR9IB2kAjyOWW3M31Co-43" value="" style="edgeStyle=elbowEdgeStyle;html=1;endArrow=block;elbow=vertical;endFill=0;dashed=1;rounded=0;entryX=1;entryY=0.5;entryDx=0;entryDy=0;entryPerimeter=0;movable=0;resizable=0;rotatable=0;deletable=0;editable=0;locked=1;connectable=0;" edge="1" parent="1" target="8IR9IB2kAjyOWW3M31Co-34">
          <mxGeometry width="160" relative="1" as="geometry">
            <mxPoint x="430" y="285" as="sourcePoint" />
            <mxPoint x="570" y="540" as="targetPoint" />
          </mxGeometry>
        </mxCell>
        <mxCell id="8IR9IB2kAjyOWW3M31Co-45" value="" style="edgeStyle=elbowEdgeStyle;html=1;endArrow=block;elbow=vertical;endFill=0;dashed=1;rounded=0;entryX=1;entryY=0.5;entryDx=0;entryDy=0;entryPerimeter=0;movable=0;resizable=0;rotatable=0;deletable=0;editable=0;locked=1;connectable=0;" edge="1" parent="1" target="8IR9IB2kAjyOWW3M31Co-30">
          <mxGeometry width="160" relative="1" as="geometry">
            <mxPoint x="430" y="470" as="sourcePoint" />
            <mxPoint x="400" y="385" as="targetPoint" />
          </mxGeometry>
        </mxCell>
        <mxCell id="8IR9IB2kAjyOWW3M31Co-54" value="" style="edgeStyle=elbowEdgeStyle;html=1;endArrow=block;elbow=vertical;endFill=0;dashed=1;rounded=0;entryX=1;entryY=0.5;entryDx=0;entryDy=0;entryPerimeter=0;movable=0;resizable=0;rotatable=0;deletable=0;editable=0;locked=1;connectable=0;" edge="1" parent="1" source="8IR9IB2kAjyOWW3M31Co-53" target="8IR9IB2kAjyOWW3M31Co-31">
          <mxGeometry width="160" relative="1" as="geometry">
            <mxPoint x="440" y="295" as="sourcePoint" />
            <mxPoint x="400" y="295" as="targetPoint" />
          </mxGeometry>
        </mxCell>
        <mxCell id="8IR9IB2kAjyOWW3M31Co-55" value="" style="edgeStyle=elbowEdgeStyle;html=1;endArrow=block;elbow=vertical;endFill=0;dashed=1;rounded=0;entryX=0.552;entryY=0.923;entryDx=0;entryDy=0;entryPerimeter=0;movable=0;resizable=0;rotatable=0;deletable=0;editable=0;locked=1;connectable=0;" edge="1" parent="1">
          <mxGeometry width="160" relative="1" as="geometry">
            <mxPoint x="537" y="230" as="sourcePoint" />
            <mxPoint x="536.9200000000001" y="189.9949999999999" as="targetPoint" />
          </mxGeometry>
        </mxCell>
        <mxCell id="8IR9IB2kAjyOWW3M31Co-56" value="" style="edgeStyle=elbowEdgeStyle;html=1;endArrow=block;elbow=vertical;endFill=0;dashed=1;rounded=0;entryX=0.5;entryY=1;entryDx=0;entryDy=0;entryPerimeter=0;exitX=0.75;exitY=0;exitDx=0;exitDy=0;exitPerimeter=0;movable=0;resizable=0;rotatable=0;deletable=0;editable=0;locked=1;connectable=0;" edge="1" parent="1" source="8IR9IB2kAjyOWW3M31Co-53" target="8IR9IB2kAjyOWW3M31Co-37">
          <mxGeometry width="160" relative="1" as="geometry">
            <mxPoint x="547" y="240" as="sourcePoint" />
            <mxPoint x="546.9200000000001" y="199.9949999999999" as="targetPoint" />
          </mxGeometry>
        </mxCell>
        <mxCell id="8IR9IB2kAjyOWW3M31Co-57" value="" style="edgeStyle=elbowEdgeStyle;html=1;endArrow=open;elbow=vertical;endFill=1;rounded=0;movable=0;resizable=0;rotatable=0;deletable=0;editable=0;locked=1;connectable=0;" edge="1" parent="1">
          <mxGeometry width="160" relative="1" as="geometry">
            <mxPoint x="649" y="575" as="sourcePoint" />
            <mxPoint x="649" y="530" as="targetPoint" />
          </mxGeometry>
        </mxCell>
        <mxCell id="8IR9IB2kAjyOWW3M31Co-58" value="" style="edgeStyle=elbowEdgeStyle;html=1;endArrow=open;elbow=vertical;endFill=0;dashed=1;startArrow=open;startFill=0;dashPattern=1 4;rounded=0;exitX=0.5;exitY=1;exitDx=0;exitDy=0;exitPerimeter=0;entryX=0.5;entryY=0;entryDx=0;entryDy=0;entryPerimeter=0;movable=0;resizable=0;rotatable=0;deletable=0;editable=0;locked=1;connectable=0;" edge="1" parent="1" source="8IR9IB2kAjyOWW3M31Co-64" target="8IR9IB2kAjyOWW3M31Co-34">
          <mxGeometry width="160" relative="1" as="geometry">
            <mxPoint x="890" y="840" as="sourcePoint" />
            <mxPoint x="1050" y="840" as="targetPoint" />
            <Array as="points" />
          </mxGeometry>
        </mxCell>
        <mxCell id="8IR9IB2kAjyOWW3M31Co-61" value="" style="html=1;startArrow=diamondThin;startFill=1;edgeStyle=elbowEdgeStyle;elbow=vertical;startSize=10;endArrow=none;endFill=0;rounded=0;exitX=0.5;exitY=0;exitDx=0;exitDy=0;exitPerimeter=0;movable=0;resizable=0;rotatable=0;deletable=0;editable=0;locked=1;connectable=0;" edge="1" parent="1" source="8IR9IB2kAjyOWW3M31Co-31">
          <mxGeometry width="160" relative="1" as="geometry">
            <mxPoint x="410" y="280" as="sourcePoint" />
            <mxPoint x="340" y="320" as="targetPoint" />
          </mxGeometry>
        </mxCell>
        <mxCell id="8IR9IB2kAjyOWW3M31Co-62" value="" style="html=1;startArrow=diamondThin;startFill=1;edgeStyle=elbowEdgeStyle;elbow=vertical;startSize=10;endArrow=none;endFill=0;rounded=0;entryX=0.5;entryY=1;entryDx=0;entryDy=0;entryPerimeter=0;movable=0;resizable=0;rotatable=0;deletable=0;editable=0;locked=1;connectable=0;" edge="1" parent="1" source="8IR9IB2kAjyOWW3M31Co-30" target="8IR9IB2kAjyOWW3M31Co-31">
          <mxGeometry width="160" relative="1" as="geometry">
            <mxPoint x="410" y="280" as="sourcePoint" />
            <mxPoint x="570" y="280" as="targetPoint" />
          </mxGeometry>
        </mxCell>
        <mxCell id="8IR9IB2kAjyOWW3M31Co-65" value="" style="edgeStyle=elbowEdgeStyle;html=1;endArrow=open;elbow=vertical;endFill=0;dashed=1;startArrow=open;startFill=0;dashPattern=1 4;rounded=0;exitX=0;exitY=0.5;exitDx=0;exitDy=0;exitPerimeter=0;entryX=0.5;entryY=0;entryDx=0;entryDy=0;entryPerimeter=0;movable=0;resizable=0;rotatable=0;deletable=0;editable=0;locked=1;connectable=0;" edge="1" parent="1" source="8IR9IB2kAjyOWW3M31Co-19" target="8IR9IB2kAjyOWW3M31Co-64">
          <mxGeometry width="160" relative="1" as="geometry">
            <mxPoint x="434" y="159" as="sourcePoint" />
            <mxPoint x="340" y="250" as="targetPoint" />
            <Array as="points">
              <mxPoint x="380" y="159" />
            </Array>
          </mxGeometry>
        </mxCell>
        <mxCell id="8IR9IB2kAjyOWW3M31Co-64" value="Dashboard&amp;nbsp;&amp;nbsp;&lt;div&gt;&amp;amp; Reporting Interface&lt;/div&gt;" style="html=1;outlineConnect=0;whiteSpace=wrap;fillColor=#99ffff;shape=mxgraph.archimate3.application;appType=interface;archiType=square;movable=0;resizable=0;rotatable=0;deletable=0;editable=0;locked=1;connectable=0;" vertex="1" parent="1">
          <mxGeometry x="290" y="130.25" width="100" height="59.75" as="geometry" />
        </mxCell>
        <mxCell id="8IR9IB2kAjyOWW3M31Co-68" value="Viewpoint: As-Is Technology &amp;amp; Application Realization" style="text;html=1;align=center;verticalAlign=middle;whiteSpace=wrap;rounded=0;fontStyle=1;movable=0;resizable=0;rotatable=0;deletable=0;editable=0;locked=1;connectable=0;" vertex="1" parent="1">
          <mxGeometry x="250" y="80" width="330" height="20" as="geometry" />
        </mxCell>
        <mxCell id="8IR9IB2kAjyOWW3M31Co-70" value="Validate Patient Data" style="html=1;outlineConnect=0;whiteSpace=wrap;fillColor=#99ffff;shape=mxgraph.archimate3.application;appType=func;archiType=rounded;movable=0;resizable=0;rotatable=0;deletable=0;editable=0;locked=1;connectable=0;" vertex="1" parent="1">
          <mxGeometry x="1616" y="680" width="100" height="70" as="geometry" />
        </mxCell>
        <mxCell id="8IR9IB2kAjyOWW3M31Co-71" value="Store Patient Record" style="html=1;outlineConnect=0;whiteSpace=wrap;fillColor=#99ffff;shape=mxgraph.archimate3.application;appType=func;archiType=rounded;movable=0;resizable=0;rotatable=0;deletable=0;editable=0;locked=1;connectable=0;" vertex="1" parent="1">
          <mxGeometry x="1730" y="680" width="100" height="70" as="geometry" />
        </mxCell>
        <mxCell id="8IR9IB2kAjyOWW3M31Co-73" value="Patient Record Management Service" style="html=1;outlineConnect=0;whiteSpace=wrap;fillColor=#99ffff;shape=mxgraph.archimate3.application;appType=serv;archiType=rounded;movable=0;resizable=0;rotatable=0;deletable=0;editable=0;locked=1;connectable=0;" vertex="1" parent="1">
          <mxGeometry x="1650" y="570" width="150" height="75" as="geometry" />
        </mxCell>
        <mxCell id="8IR9IB2kAjyOWW3M31Co-75" value="&lt;div&gt;&lt;br&gt;&lt;/div&gt;&lt;div&gt;&lt;span style=&quot;background-color: transparent; color: light-dark(rgb(0, 0, 0), rgb(255, 255, 255));&quot;&gt;&lt;br&gt;Patient&amp;nbsp;&lt;/span&gt;&lt;/div&gt;&lt;div&gt;Record&lt;/div&gt;" style="html=1;outlineConnect=0;whiteSpace=wrap;fillColor=#99ffff;shape=mxgraph.archimate3.businessObject;overflow=fill;movable=0;resizable=0;rotatable=0;deletable=0;editable=0;locked=1;connectable=0;" vertex="1" parent="1">
          <mxGeometry x="1623.5" y="775" width="85" height="75" as="geometry" />
        </mxCell>
        <mxCell id="8IR9IB2kAjyOWW3M31Co-76" value="Data Analysis &amp;amp; Visualization Services" style="html=1;outlineConnect=0;whiteSpace=wrap;fillColor=#99ffff;shape=mxgraph.archimate3.application;appType=serv;archiType=rounded;movable=0;resizable=0;rotatable=0;deletable=0;editable=0;locked=1;connectable=0;" vertex="1" parent="1">
          <mxGeometry x="1897" y="570" width="150" height="75" as="geometry" />
        </mxCell>
        <mxCell id="8IR9IB2kAjyOWW3M31Co-80" value="Generate Health Resume" style="html=1;outlineConnect=0;whiteSpace=wrap;fillColor=#99ffff;shape=mxgraph.archimate3.application;appType=func;archiType=rounded;movable=0;resizable=0;rotatable=0;deletable=0;editable=0;locked=1;connectable=0;" vertex="1" parent="1">
          <mxGeometry x="1860" y="680" width="100" height="72.5" as="geometry" />
        </mxCell>
        <mxCell id="8IR9IB2kAjyOWW3M31Co-81" value="Analyze Health Data" style="html=1;outlineConnect=0;whiteSpace=wrap;fillColor=#99ffff;shape=mxgraph.archimate3.application;appType=func;archiType=rounded;movable=0;resizable=0;rotatable=0;deletable=0;editable=0;locked=1;connectable=0;" vertex="1" parent="1">
          <mxGeometry x="1990" y="680" width="100" height="71.25" as="geometry" />
        </mxCell>
        <mxCell id="8IR9IB2kAjyOWW3M31Co-82" value="&lt;br&gt;&lt;div&gt;&lt;br&gt;&lt;/div&gt;&lt;div&gt;Health&amp;nbsp;&lt;/div&gt;&lt;div&gt;Record&lt;/div&gt;" style="html=1;outlineConnect=0;whiteSpace=wrap;fillColor=#99ffff;shape=mxgraph.archimate3.businessObject;overflow=fill;movable=0;resizable=0;rotatable=0;deletable=0;editable=0;locked=1;connectable=0;" vertex="1" parent="1">
          <mxGeometry x="1737.5" y="775" width="85" height="75" as="geometry" />
        </mxCell>
        <mxCell id="8IR9IB2kAjyOWW3M31Co-83" value="&lt;br&gt;&lt;div&gt;&lt;br&gt;&lt;/div&gt;&lt;div&gt;Health&amp;nbsp;&lt;/div&gt;&lt;div&gt;Indicator&lt;/div&gt;" style="html=1;outlineConnect=0;whiteSpace=wrap;fillColor=#99ffff;shape=mxgraph.archimate3.businessObject;overflow=fill;movable=0;resizable=0;rotatable=0;deletable=0;editable=0;locked=1;connectable=0;" vertex="1" parent="1">
          <mxGeometry x="1997.5" y="775" width="85" height="75" as="geometry" />
        </mxCell>
        <mxCell id="8IR9IB2kAjyOWW3M31Co-84" value="&lt;br&gt;&lt;div&gt;&lt;br&gt;&lt;/div&gt;&lt;div&gt;Health&amp;nbsp;&lt;/div&gt;&lt;div&gt;Resume&lt;/div&gt;" style="html=1;outlineConnect=0;whiteSpace=wrap;fillColor=#99ffff;shape=mxgraph.archimate3.businessObject;overflow=fill;movable=0;resizable=0;rotatable=0;deletable=0;editable=0;locked=1;connectable=0;" vertex="1" parent="1">
          <mxGeometry x="1867.5" y="775" width="85" height="75" as="geometry" />
        </mxCell>
        <mxCell id="8IR9IB2kAjyOWW3M31Co-85" value="Identity Access Management Service" style="html=1;outlineConnect=0;whiteSpace=wrap;fillColor=#99ffff;shape=mxgraph.archimate3.application;appType=serv;archiType=rounded;movable=0;resizable=0;rotatable=0;deletable=0;editable=0;locked=1;connectable=0;" vertex="1" parent="1">
          <mxGeometry x="2189" y="570" width="150" height="75" as="geometry" />
        </mxCell>
        <mxCell id="8IR9IB2kAjyOWW3M31Co-87" value="Role Based Access Control" style="html=1;outlineConnect=0;whiteSpace=wrap;fillColor=#99ffff;shape=mxgraph.archimate3.application;appType=func;archiType=rounded;movable=0;resizable=0;rotatable=0;deletable=0;editable=0;locked=1;connectable=0;" vertex="1" parent="1">
          <mxGeometry x="2149" y="681.25" width="100" height="71.25" as="geometry" />
        </mxCell>
        <mxCell id="8IR9IB2kAjyOWW3M31Co-88" value="Authentication &amp;amp; Authorization" style="html=1;outlineConnect=0;whiteSpace=wrap;fillColor=#99ffff;shape=mxgraph.archimate3.application;appType=func;archiType=rounded;movable=0;resizable=0;rotatable=0;deletable=0;editable=0;locked=1;connectable=0;" vertex="1" parent="1">
          <mxGeometry x="2270" y="679.38" width="100" height="71.25" as="geometry" />
        </mxCell>
        <mxCell id="8IR9IB2kAjyOWW3M31Co-89" value="Pub/Sub Messaging Service" style="html=1;outlineConnect=0;whiteSpace=wrap;fillColor=#99ffff;shape=mxgraph.archimate3.application;appType=serv;archiType=rounded;movable=0;resizable=0;rotatable=0;deletable=0;editable=0;locked=1;connectable=0;" vertex="1" parent="1">
          <mxGeometry x="2679" y="570" width="150" height="75" as="geometry" />
        </mxCell>
        <mxCell id="8IR9IB2kAjyOWW3M31Co-90" value="&lt;br&gt;&lt;div&gt;&lt;br&gt;&lt;/div&gt;&lt;div&gt;User&amp;nbsp;&lt;/div&gt;&lt;div&gt;Record&lt;/div&gt;" style="html=1;outlineConnect=0;whiteSpace=wrap;fillColor=#99ffff;shape=mxgraph.archimate3.businessObject;overflow=fill;movable=0;resizable=0;rotatable=0;deletable=0;editable=0;locked=1;connectable=0;" vertex="1" parent="1">
          <mxGeometry x="2156.5" y="775" width="85" height="75" as="geometry" />
        </mxCell>
        <mxCell id="8IR9IB2kAjyOWW3M31Co-91" value="&lt;div&gt;&lt;br&gt;&lt;/div&gt;&lt;div&gt;&lt;br&gt;&lt;/div&gt;User&amp;nbsp;&lt;div&gt;Credential&lt;/div&gt;" style="html=1;outlineConnect=0;whiteSpace=wrap;fillColor=#99ffff;shape=mxgraph.archimate3.businessObject;overflow=fill;movable=0;resizable=0;rotatable=0;deletable=0;editable=0;locked=1;connectable=0;" vertex="1" parent="1">
          <mxGeometry x="2276.5" y="775" width="85" height="75" as="geometry" />
        </mxCell>
        <mxCell id="8IR9IB2kAjyOWW3M31Co-93" value="&lt;div&gt;&lt;br&gt;&lt;/div&gt;&lt;div&gt;&lt;br&gt;&lt;/div&gt;&lt;div&gt;&lt;span style=&quot;background-color: transparent; color: light-dark(rgb(0, 0, 0), rgb(255, 255, 255));&quot;&gt;Log&amp;nbsp;&lt;/span&gt;&lt;/div&gt;&lt;div&gt;&lt;span style=&quot;background-color: transparent; color: light-dark(rgb(0, 0, 0), rgb(255, 255, 255));&quot;&gt;Data&lt;/span&gt;&lt;/div&gt;" style="html=1;outlineConnect=0;whiteSpace=wrap;fillColor=#99ffff;shape=mxgraph.archimate3.businessObject;overflow=fill;movable=0;resizable=0;rotatable=0;deletable=0;editable=0;locked=1;connectable=0;" vertex="1" parent="1">
          <mxGeometry x="2406.5" y="775" width="85" height="75" as="geometry" />
        </mxCell>
        <mxCell id="8IR9IB2kAjyOWW3M31Co-94" value="Event&amp;nbsp;&lt;div&gt;Notification&lt;/div&gt;" style="html=1;outlineConnect=0;whiteSpace=wrap;fillColor=#99ffff;shape=mxgraph.archimate3.application;appType=func;archiType=rounded;movable=0;resizable=0;rotatable=0;deletable=0;editable=0;locked=1;connectable=0;" vertex="1" parent="1">
          <mxGeometry x="2649" y="680.62" width="100" height="71.25" as="geometry" />
        </mxCell>
        <mxCell id="8IR9IB2kAjyOWW3M31Co-95" value="Query Management" style="html=1;outlineConnect=0;whiteSpace=wrap;fillColor=#99ffff;shape=mxgraph.archimate3.application;appType=func;archiType=rounded;movable=0;resizable=0;rotatable=0;deletable=0;editable=0;locked=1;connectable=0;" vertex="1" parent="1">
          <mxGeometry x="2769" y="680" width="100" height="71.25" as="geometry" />
        </mxCell>
        <mxCell id="8IR9IB2kAjyOWW3M31Co-96" value="&lt;div&gt;&lt;br&gt;&lt;/div&gt;&lt;div&gt;&lt;br&gt;&lt;/div&gt;&lt;div&gt;Event&amp;nbsp;&lt;/div&gt;&lt;div&gt;Message&lt;/div&gt;" style="html=1;outlineConnect=0;whiteSpace=wrap;fillColor=#99ffff;shape=mxgraph.archimate3.businessObject;overflow=fill;movable=0;resizable=0;rotatable=0;deletable=0;editable=0;locked=1;connectable=0;" vertex="1" parent="1">
          <mxGeometry x="2656.5" y="775" width="85" height="75" as="geometry" />
        </mxCell>
        <mxCell id="8IR9IB2kAjyOWW3M31Co-98" value="&lt;br&gt;&lt;div&gt;&lt;br&gt;&lt;/div&gt;&lt;div&gt;Message Queue&lt;/div&gt;" style="html=1;outlineConnect=0;whiteSpace=wrap;fillColor=#99ffff;shape=mxgraph.archimate3.businessObject;overflow=fill;movable=0;resizable=0;rotatable=0;deletable=0;editable=0;locked=1;connectable=0;" vertex="1" parent="1">
          <mxGeometry x="2776.5" y="775" width="85" height="75" as="geometry" />
        </mxCell>
        <mxCell id="8IR9IB2kAjyOWW3M31Co-99" value="Audit Logging" style="html=1;outlineConnect=0;whiteSpace=wrap;fillColor=#99ffff;shape=mxgraph.archimate3.application;appType=func;archiType=rounded;movable=0;resizable=0;rotatable=0;deletable=0;editable=0;locked=1;connectable=0;" vertex="1" parent="1">
          <mxGeometry x="2399" y="678.75" width="100" height="71.25" as="geometry" />
        </mxCell>
        <mxCell id="8IR9IB2kAjyOWW3M31Co-100" value="Node Authentication" style="html=1;outlineConnect=0;whiteSpace=wrap;fillColor=#99ffff;shape=mxgraph.archimate3.application;appType=func;archiType=rounded;movable=0;resizable=0;rotatable=0;deletable=0;editable=0;locked=1;connectable=0;" vertex="1" parent="1">
          <mxGeometry x="2526.5" y="678.75" width="100" height="71.25" as="geometry" />
        </mxCell>
        <mxCell id="8IR9IB2kAjyOWW3M31Co-101" value="&lt;br&gt;&lt;div&gt;&lt;br&gt;&lt;/div&gt;&lt;div&gt;Node Identity Profile&lt;/div&gt;" style="html=1;outlineConnect=0;whiteSpace=wrap;fillColor=#99ffff;shape=mxgraph.archimate3.businessObject;overflow=fill;movable=0;resizable=0;rotatable=0;deletable=0;editable=0;locked=1;connectable=0;" vertex="1" parent="1">
          <mxGeometry x="2534" y="775" width="85" height="75" as="geometry" />
        </mxCell>
        <mxCell id="8IR9IB2kAjyOWW3M31Co-102" value="ATNA" style="html=1;outlineConnect=0;whiteSpace=wrap;fillColor=#99ffff;shape=mxgraph.archimate3.application;appType=serv;archiType=rounded;movable=0;resizable=0;rotatable=0;deletable=0;editable=0;locked=1;connectable=0;" vertex="1" parent="1">
          <mxGeometry x="2436.5" y="570" width="150" height="75" as="geometry" />
        </mxCell>
        <mxCell id="8IR9IB2kAjyOWW3M31Co-104" value="Core Application" style="html=1;outlineConnect=0;whiteSpace=wrap;fillColor=#99ffff;shape=mxgraph.archimate3.application;appType=comp;archiType=square;movable=0;resizable=0;rotatable=0;deletable=0;editable=0;locked=1;connectable=0;" vertex="1" parent="1">
          <mxGeometry x="1651" y="444" width="400" height="75" as="geometry" />
        </mxCell>
        <mxCell id="8IR9IB2kAjyOWW3M31Co-105" value="Service Management" style="html=1;outlineConnect=0;whiteSpace=wrap;fillColor=#99ffff;shape=mxgraph.archimate3.application;appType=comp;archiType=square;movable=0;resizable=0;rotatable=0;deletable=0;editable=0;locked=1;connectable=0;" vertex="1" parent="1">
          <mxGeometry x="2140" y="443" width="740" height="75" as="geometry" />
        </mxCell>
        <mxCell id="8IR9IB2kAjyOWW3M31Co-106" value="Administrator Console" style="html=1;outlineConnect=0;whiteSpace=wrap;fillColor=#99ffff;shape=mxgraph.archimate3.application;appType=interface;archiType=square;movable=0;resizable=0;rotatable=0;deletable=0;editable=0;locked=1;connectable=0;" vertex="1" parent="1">
          <mxGeometry x="2140" y="340" width="740" height="75" as="geometry" />
        </mxCell>
        <mxCell id="8IR9IB2kAjyOWW3M31Co-107" value="Web Console" style="html=1;outlineConnect=0;whiteSpace=wrap;fillColor=#99ffff;shape=mxgraph.archimate3.application;appType=interface;archiType=square;movable=0;resizable=0;rotatable=0;deletable=0;editable=0;locked=1;connectable=0;" vertex="1" parent="1">
          <mxGeometry x="1650" y="335" width="400" height="75" as="geometry" />
        </mxCell>
        <mxCell id="8IR9IB2kAjyOWW3M31Co-110" value="" style="edgeStyle=elbowEdgeStyle;html=1;endArrow=block;elbow=vertical;endFill=0;dashed=1;rounded=0;exitX=0.5;exitY=1;exitDx=0;exitDy=0;exitPerimeter=0;entryX=0.5;entryY=0;entryDx=0;entryDy=0;entryPerimeter=0;movable=0;resizable=0;rotatable=0;deletable=0;editable=0;locked=1;connectable=0;" edge="1" parent="1" source="8IR9IB2kAjyOWW3M31Co-73" target="8IR9IB2kAjyOWW3M31Co-71">
          <mxGeometry width="160" relative="1" as="geometry">
            <mxPoint x="2230" y="600" as="sourcePoint" />
            <mxPoint x="2390" y="600" as="targetPoint" />
          </mxGeometry>
        </mxCell>
        <mxCell id="8IR9IB2kAjyOWW3M31Co-111" value="" style="edgeStyle=elbowEdgeStyle;html=1;endArrow=block;elbow=vertical;endFill=0;dashed=1;rounded=0;exitX=0.5;exitY=1;exitDx=0;exitDy=0;exitPerimeter=0;entryX=0.5;entryY=0;entryDx=0;entryDy=0;entryPerimeter=0;movable=0;resizable=0;rotatable=0;deletable=0;editable=0;locked=1;connectable=0;" edge="1" parent="1" source="8IR9IB2kAjyOWW3M31Co-73" target="8IR9IB2kAjyOWW3M31Co-70">
          <mxGeometry width="160" relative="1" as="geometry">
            <mxPoint x="2230" y="600" as="sourcePoint" />
            <mxPoint x="2390" y="600" as="targetPoint" />
          </mxGeometry>
        </mxCell>
        <mxCell id="8IR9IB2kAjyOWW3M31Co-112" value="" style="edgeStyle=elbowEdgeStyle;html=1;endArrow=open;elbow=vertical;endFill=0;dashed=1;startArrow=open;startFill=0;dashPattern=1 4;rounded=0;exitX=0.5;exitY=1;exitDx=0;exitDy=0;exitPerimeter=0;entryX=0.5;entryY=0;entryDx=0;entryDy=0;entryPerimeter=0;movable=0;resizable=0;rotatable=0;deletable=0;editable=0;locked=1;connectable=0;" edge="1" parent="1" source="8IR9IB2kAjyOWW3M31Co-70" target="8IR9IB2kAjyOWW3M31Co-75">
          <mxGeometry width="160" relative="1" as="geometry">
            <mxPoint x="2230" y="600" as="sourcePoint" />
            <mxPoint x="2390" y="600" as="targetPoint" />
          </mxGeometry>
        </mxCell>
        <mxCell id="8IR9IB2kAjyOWW3M31Co-113" value="" style="edgeStyle=elbowEdgeStyle;html=1;endArrow=open;elbow=vertical;endFill=0;dashed=1;startArrow=open;startFill=0;dashPattern=1 4;rounded=0;exitX=0.5;exitY=1;exitDx=0;exitDy=0;exitPerimeter=0;entryX=0.5;entryY=0;entryDx=0;entryDy=0;entryPerimeter=0;movable=0;resizable=0;rotatable=0;deletable=0;editable=0;locked=1;connectable=0;" edge="1" parent="1">
          <mxGeometry width="160" relative="1" as="geometry">
            <mxPoint x="1764" y="749.9999999999999" as="sourcePoint" />
            <mxPoint x="1764" y="774.9999999999999" as="targetPoint" />
          </mxGeometry>
        </mxCell>
        <mxCell id="8IR9IB2kAjyOWW3M31Co-114" value="" style="html=1;startArrow=diamondThin;startFill=1;edgeStyle=elbowEdgeStyle;elbow=vertical;startSize=10;endArrow=none;endFill=0;rounded=0;entryX=1;entryY=0.5;entryDx=0;entryDy=0;entryPerimeter=0;exitX=0;exitY=0.5;exitDx=0;exitDy=0;exitPerimeter=0;movable=0;resizable=0;rotatable=0;deletable=0;editable=0;locked=1;connectable=0;" edge="1" parent="1" source="8IR9IB2kAjyOWW3M31Co-82" target="8IR9IB2kAjyOWW3M31Co-75">
          <mxGeometry width="160" relative="1" as="geometry">
            <mxPoint x="1820" y="750" as="sourcePoint" />
            <mxPoint x="1980" y="750" as="targetPoint" />
          </mxGeometry>
        </mxCell>
        <mxCell id="8IR9IB2kAjyOWW3M31Co-115" value="" style="html=1;startArrow=diamondThin;startFill=1;edgeStyle=elbowEdgeStyle;elbow=vertical;startSize=10;endArrow=none;endFill=0;rounded=0;entryX=1;entryY=0.5;entryDx=0;entryDy=0;entryPerimeter=0;exitX=0;exitY=0.5;exitDx=0;exitDy=0;exitPerimeter=0;movable=0;resizable=0;rotatable=0;deletable=0;editable=0;locked=1;connectable=0;" edge="1" parent="1" source="8IR9IB2kAjyOWW3M31Co-84" target="8IR9IB2kAjyOWW3M31Co-82">
          <mxGeometry width="160" relative="1" as="geometry">
            <mxPoint x="1820" y="750" as="sourcePoint" />
            <mxPoint x="1980" y="750" as="targetPoint" />
          </mxGeometry>
        </mxCell>
        <mxCell id="8IR9IB2kAjyOWW3M31Co-118" value="" style="html=1;startArrow=diamondThin;startFill=1;edgeStyle=elbowEdgeStyle;elbow=vertical;startSize=10;endArrow=none;endFill=0;rounded=0;exitX=0;exitY=0.5;exitDx=0;exitDy=0;exitPerimeter=0;entryX=1;entryY=0.5;entryDx=0;entryDy=0;entryPerimeter=0;movable=0;resizable=0;rotatable=0;deletable=0;editable=0;locked=1;connectable=0;" edge="1" parent="1" source="8IR9IB2kAjyOWW3M31Co-83" target="8IR9IB2kAjyOWW3M31Co-84">
          <mxGeometry width="160" relative="1" as="geometry">
            <mxPoint x="1820" y="700" as="sourcePoint" />
            <mxPoint x="1980" y="700" as="targetPoint" />
          </mxGeometry>
        </mxCell>
        <mxCell id="8IR9IB2kAjyOWW3M31Co-119" value="" style="edgeStyle=elbowEdgeStyle;html=1;endArrow=open;elbow=vertical;endFill=0;dashed=1;startArrow=open;startFill=0;dashPattern=1 4;rounded=0;exitX=0.5;exitY=0;exitDx=0;exitDy=0;exitPerimeter=0;entryX=0.5;entryY=1;entryDx=0;entryDy=0;entryPerimeter=0;movable=0;resizable=0;rotatable=0;deletable=0;editable=0;locked=1;connectable=0;" edge="1" parent="1">
          <mxGeometry width="160" relative="1" as="geometry">
            <mxPoint x="1896" y="775" as="sourcePoint" />
            <mxPoint x="1896" y="752.5" as="targetPoint" />
          </mxGeometry>
        </mxCell>
        <mxCell id="8IR9IB2kAjyOWW3M31Co-120" value="" style="edgeStyle=elbowEdgeStyle;html=1;endArrow=open;elbow=vertical;endFill=0;dashed=1;startArrow=open;startFill=0;dashPattern=1 4;rounded=0;exitX=0.5;exitY=0;exitDx=0;exitDy=0;exitPerimeter=0;entryX=0.5;entryY=1;entryDx=0;entryDy=0;entryPerimeter=0;movable=0;resizable=0;rotatable=0;deletable=0;editable=0;locked=1;connectable=0;" edge="1" parent="1" source="8IR9IB2kAjyOWW3M31Co-83" target="8IR9IB2kAjyOWW3M31Co-81">
          <mxGeometry width="160" relative="1" as="geometry">
            <mxPoint x="1820" y="700" as="sourcePoint" />
            <mxPoint x="1980" y="700" as="targetPoint" />
          </mxGeometry>
        </mxCell>
        <mxCell id="8IR9IB2kAjyOWW3M31Co-121" value="" style="edgeStyle=elbowEdgeStyle;html=1;endArrow=block;elbow=vertical;endFill=0;dashed=1;rounded=0;exitX=0.5;exitY=1;exitDx=0;exitDy=0;exitPerimeter=0;movable=0;resizable=0;rotatable=0;deletable=0;editable=0;locked=1;connectable=0;" edge="1" parent="1" source="8IR9IB2kAjyOWW3M31Co-76" target="8IR9IB2kAjyOWW3M31Co-80">
          <mxGeometry width="160" relative="1" as="geometry">
            <mxPoint x="1820" y="700" as="sourcePoint" />
            <mxPoint x="1980" y="700" as="targetPoint" />
          </mxGeometry>
        </mxCell>
        <mxCell id="8IR9IB2kAjyOWW3M31Co-122" value="" style="edgeStyle=elbowEdgeStyle;html=1;endArrow=block;elbow=vertical;endFill=0;dashed=1;rounded=0;movable=0;resizable=0;rotatable=0;deletable=0;editable=0;locked=1;connectable=0;" edge="1" parent="1" source="8IR9IB2kAjyOWW3M31Co-76" target="8IR9IB2kAjyOWW3M31Co-81">
          <mxGeometry width="160" relative="1" as="geometry">
            <mxPoint x="1820" y="700" as="sourcePoint" />
            <mxPoint x="1980" y="700" as="targetPoint" />
          </mxGeometry>
        </mxCell>
        <mxCell id="8IR9IB2kAjyOWW3M31Co-123" value="" style="edgeStyle=elbowEdgeStyle;html=1;endArrow=block;dashed=0;elbow=vertical;endFill=1;rounded=0;exitX=0.5;exitY=0;exitDx=0;exitDy=0;exitPerimeter=0;entryX=0.5;entryY=1;entryDx=0;entryDy=0;entryPerimeter=0;movable=0;resizable=0;rotatable=0;deletable=0;editable=0;locked=1;connectable=0;" edge="1" parent="1" source="8IR9IB2kAjyOWW3M31Co-94" target="8IR9IB2kAjyOWW3M31Co-89">
          <mxGeometry width="160" relative="1" as="geometry">
            <mxPoint x="2290" y="710" as="sourcePoint" />
            <mxPoint x="2450" y="710" as="targetPoint" />
          </mxGeometry>
        </mxCell>
        <mxCell id="8IR9IB2kAjyOWW3M31Co-127" value="" style="edgeStyle=elbowEdgeStyle;html=1;endArrow=open;elbow=vertical;endFill=0;dashed=1;dashPattern=1 4;rounded=0;exitX=0.5;exitY=1;exitDx=0;exitDy=0;exitPerimeter=0;movable=0;resizable=0;rotatable=0;deletable=0;editable=0;locked=1;connectable=0;" edge="1" parent="1" source="8IR9IB2kAjyOWW3M31Co-94" target="8IR9IB2kAjyOWW3M31Co-96">
          <mxGeometry width="160" relative="1" as="geometry">
            <mxPoint x="2420" y="750" as="sourcePoint" />
            <mxPoint x="2600" y="710" as="targetPoint" />
          </mxGeometry>
        </mxCell>
        <mxCell id="8IR9IB2kAjyOWW3M31Co-128" value="" style="edgeStyle=elbowEdgeStyle;html=1;endArrow=open;elbow=vertical;endFill=0;dashed=1;dashPattern=1 4;rounded=0;exitX=0.5;exitY=1;exitDx=0;exitDy=0;exitPerimeter=0;entryX=0.5;entryY=0;entryDx=0;entryDy=0;entryPerimeter=0;movable=0;resizable=0;rotatable=0;deletable=0;editable=0;locked=1;connectable=0;" edge="1" parent="1" source="8IR9IB2kAjyOWW3M31Co-95" target="8IR9IB2kAjyOWW3M31Co-98">
          <mxGeometry width="160" relative="1" as="geometry">
            <mxPoint x="2440" y="710" as="sourcePoint" />
            <mxPoint x="2540" y="770" as="targetPoint" />
          </mxGeometry>
        </mxCell>
        <mxCell id="8IR9IB2kAjyOWW3M31Co-129" value="" style="edgeStyle=elbowEdgeStyle;html=1;endArrow=open;elbow=vertical;endFill=0;dashed=1;dashPattern=1 4;rounded=0;exitX=0.5;exitY=1;exitDx=0;exitDy=0;exitPerimeter=0;entryX=0.5;entryY=0;entryDx=0;entryDy=0;entryPerimeter=0;movable=0;resizable=0;rotatable=0;deletable=0;editable=0;locked=1;connectable=0;" edge="1" parent="1" source="8IR9IB2kAjyOWW3M31Co-88" target="8IR9IB2kAjyOWW3M31Co-91">
          <mxGeometry width="160" relative="1" as="geometry">
            <mxPoint x="2440" y="710" as="sourcePoint" />
            <mxPoint x="2290" y="780" as="targetPoint" />
          </mxGeometry>
        </mxCell>
        <mxCell id="8IR9IB2kAjyOWW3M31Co-130" value="" style="html=1;startArrow=diamondThin;startFill=0;edgeStyle=elbowEdgeStyle;elbow=vertical;startSize=10;endArrow=none;endFill=0;rounded=0;exitX=1;exitY=0.5;exitDx=0;exitDy=0;exitPerimeter=0;entryX=0;entryY=0.5;entryDx=0;entryDy=0;entryPerimeter=0;movable=0;resizable=0;rotatable=0;deletable=0;editable=0;locked=1;connectable=0;" edge="1" parent="1" source="8IR9IB2kAjyOWW3M31Co-90" target="8IR9IB2kAjyOWW3M31Co-91">
          <mxGeometry width="160" relative="1" as="geometry">
            <mxPoint x="2440" y="760" as="sourcePoint" />
            <mxPoint x="2600" y="760" as="targetPoint" />
          </mxGeometry>
        </mxCell>
        <mxCell id="8IR9IB2kAjyOWW3M31Co-131" value="" style="edgeStyle=elbowEdgeStyle;html=1;endArrow=open;elbow=vertical;endFill=0;dashed=1;dashPattern=1 4;rounded=0;exitX=0.5;exitY=1;exitDx=0;exitDy=0;exitPerimeter=0;movable=0;resizable=0;rotatable=0;deletable=0;editable=0;locked=1;connectable=0;" edge="1" parent="1" source="8IR9IB2kAjyOWW3M31Co-87" target="8IR9IB2kAjyOWW3M31Co-90">
          <mxGeometry width="160" relative="1" as="geometry">
            <mxPoint x="2310" y="760" as="sourcePoint" />
            <mxPoint x="2470" y="760" as="targetPoint" />
          </mxGeometry>
        </mxCell>
        <mxCell id="8IR9IB2kAjyOWW3M31Co-133" value="" style="edgeStyle=elbowEdgeStyle;html=1;endArrow=block;elbow=vertical;endFill=0;dashed=1;rounded=0;exitX=0.5;exitY=0;exitDx=0;exitDy=0;exitPerimeter=0;entryX=0.25;entryY=1;entryDx=0;entryDy=0;entryPerimeter=0;movable=0;resizable=0;rotatable=0;deletable=0;editable=0;locked=1;connectable=0;" edge="1" parent="1" source="8IR9IB2kAjyOWW3M31Co-87" target="8IR9IB2kAjyOWW3M31Co-85">
          <mxGeometry width="160" relative="1" as="geometry">
            <mxPoint x="2310" y="710" as="sourcePoint" />
            <mxPoint x="2470" y="710" as="targetPoint" />
          </mxGeometry>
        </mxCell>
        <mxCell id="8IR9IB2kAjyOWW3M31Co-135" value="" style="edgeStyle=elbowEdgeStyle;html=1;endArrow=block;dashed=0;elbow=vertical;endFill=1;rounded=0;exitX=0.5;exitY=0;exitDx=0;exitDy=0;exitPerimeter=0;entryX=0.5;entryY=1;entryDx=0;entryDy=0;entryPerimeter=0;movable=0;resizable=0;rotatable=0;deletable=0;editable=0;locked=1;connectable=0;" edge="1" parent="1" source="8IR9IB2kAjyOWW3M31Co-95" target="8IR9IB2kAjyOWW3M31Co-89">
          <mxGeometry width="160" relative="1" as="geometry">
            <mxPoint x="2340" y="760" as="sourcePoint" />
            <mxPoint x="2500" y="760" as="targetPoint" />
          </mxGeometry>
        </mxCell>
        <mxCell id="8IR9IB2kAjyOWW3M31Co-136" value="" style="edgeStyle=elbowEdgeStyle;html=1;endArrow=open;elbow=vertical;endFill=0;dashed=1;startArrow=open;startFill=0;dashPattern=1 4;rounded=0;exitX=0.5;exitY=1;exitDx=0;exitDy=0;exitPerimeter=0;movable=0;resizable=0;rotatable=0;deletable=0;editable=0;locked=1;connectable=0;" edge="1" parent="1">
          <mxGeometry width="160" relative="1" as="geometry">
            <mxPoint x="2438.0000000000005" y="750" as="sourcePoint" />
            <mxPoint x="2438.0000000000005" y="775" as="targetPoint" />
          </mxGeometry>
        </mxCell>
        <mxCell id="8IR9IB2kAjyOWW3M31Co-137" value="" style="edgeStyle=elbowEdgeStyle;html=1;endArrow=open;elbow=vertical;endFill=0;dashed=1;startArrow=open;startFill=0;dashPattern=1 4;rounded=0;entryX=0.5;entryY=0;entryDx=0;entryDy=0;entryPerimeter=0;exitX=0.5;exitY=1;exitDx=0;exitDy=0;exitPerimeter=0;movable=0;resizable=0;rotatable=0;deletable=0;editable=0;locked=1;connectable=0;" edge="1" parent="1" source="8IR9IB2kAjyOWW3M31Co-100" target="8IR9IB2kAjyOWW3M31Co-101">
          <mxGeometry width="160" relative="1" as="geometry">
            <mxPoint x="2570" y="760" as="sourcePoint" />
            <mxPoint x="2730" y="760" as="targetPoint" />
          </mxGeometry>
        </mxCell>
        <mxCell id="8IR9IB2kAjyOWW3M31Co-138" value="" style="edgeStyle=elbowEdgeStyle;html=1;endArrow=open;elbow=vertical;endFill=1;rounded=0;exitX=0.5;exitY=0;exitDx=0;exitDy=0;exitPerimeter=0;entryX=0.5;entryY=1;entryDx=0;entryDy=0;entryPerimeter=0;movable=0;resizable=0;rotatable=0;deletable=0;editable=0;locked=1;connectable=0;" edge="1" parent="1" source="8IR9IB2kAjyOWW3M31Co-99" target="8IR9IB2kAjyOWW3M31Co-102">
          <mxGeometry width="160" relative="1" as="geometry">
            <mxPoint x="2570" y="760" as="sourcePoint" />
            <mxPoint x="2730" y="760" as="targetPoint" />
          </mxGeometry>
        </mxCell>
        <mxCell id="8IR9IB2kAjyOWW3M31Co-140" value="" style="edgeStyle=elbowEdgeStyle;html=1;endArrow=open;elbow=vertical;endFill=1;rounded=0;exitX=0.5;exitY=0;exitDx=0;exitDy=0;exitPerimeter=0;entryX=0.5;entryY=1;entryDx=0;entryDy=0;entryPerimeter=0;movable=0;resizable=0;rotatable=0;deletable=0;editable=0;locked=1;connectable=0;" edge="1" parent="1" source="8IR9IB2kAjyOWW3M31Co-100" target="8IR9IB2kAjyOWW3M31Co-102">
          <mxGeometry width="160" relative="1" as="geometry">
            <mxPoint x="2570" y="710" as="sourcePoint" />
            <mxPoint x="2730" y="710" as="targetPoint" />
            <Array as="points" />
          </mxGeometry>
        </mxCell>
        <mxCell id="8IR9IB2kAjyOWW3M31Co-143" value="" style="edgeStyle=elbowEdgeStyle;html=1;endArrow=block;endFill=0;dashed=1;rounded=0;exitX=1;exitY=0.5;exitDx=0;exitDy=0;exitPerimeter=0;entryX=0;entryY=0.5;entryDx=0;entryDy=0;entryPerimeter=0;movable=0;resizable=0;rotatable=0;deletable=0;editable=0;locked=1;connectable=0;" edge="1" parent="1" source="8IR9IB2kAjyOWW3M31Co-88" target="8IR9IB2kAjyOWW3M31Co-102">
          <mxGeometry width="160" relative="1" as="geometry">
            <mxPoint x="2320" y="680" as="sourcePoint" />
            <mxPoint x="2400" y="690" as="targetPoint" />
            <Array as="points">
              <mxPoint x="2390" y="660" />
            </Array>
          </mxGeometry>
        </mxCell>
        <mxCell id="8IR9IB2kAjyOWW3M31Co-149" value="" style="edgeStyle=elbowEdgeStyle;html=1;endArrow=block;elbow=vertical;endFill=0;dashed=1;rounded=0;exitX=0.5;exitY=0;exitDx=0;exitDy=0;exitPerimeter=0;movable=0;resizable=0;rotatable=0;deletable=0;editable=0;locked=1;connectable=0;" edge="1" parent="1" source="8IR9IB2kAjyOWW3M31Co-104" target="8IR9IB2kAjyOWW3M31Co-107">
          <mxGeometry width="160" relative="1" as="geometry">
            <mxPoint x="2120" y="540" as="sourcePoint" />
            <mxPoint x="2280" y="540" as="targetPoint" />
          </mxGeometry>
        </mxCell>
        <mxCell id="8IR9IB2kAjyOWW3M31Co-151" value="" style="edgeStyle=elbowEdgeStyle;html=1;endArrow=block;elbow=vertical;endFill=0;dashed=1;rounded=0;exitX=0.5;exitY=0;exitDx=0;exitDy=0;exitPerimeter=0;movable=0;resizable=0;rotatable=0;deletable=0;editable=0;locked=1;connectable=0;" edge="1" parent="1" source="8IR9IB2kAjyOWW3M31Co-105" target="8IR9IB2kAjyOWW3M31Co-106">
          <mxGeometry width="160" relative="1" as="geometry">
            <mxPoint x="2120" y="540" as="sourcePoint" />
            <mxPoint x="2280" y="540" as="targetPoint" />
          </mxGeometry>
        </mxCell>
        <mxCell id="8IR9IB2kAjyOWW3M31Co-154" value="" style="edgeStyle=elbowEdgeStyle;html=1;endArrow=open;elbow=vertical;endFill=1;rounded=0;exitX=0.5;exitY=0;exitDx=0;exitDy=0;exitPerimeter=0;entryX=0.5;entryY=1;entryDx=0;entryDy=0;entryPerimeter=0;movable=0;resizable=0;rotatable=0;deletable=0;editable=0;locked=1;connectable=0;" edge="1" parent="1" source="8IR9IB2kAjyOWW3M31Co-153" target="8IR9IB2kAjyOWW3M31Co-104">
          <mxGeometry width="160" relative="1" as="geometry">
            <mxPoint x="1980" y="720" as="sourcePoint" />
            <mxPoint x="2140" y="720" as="targetPoint" />
          </mxGeometry>
        </mxCell>
        <mxCell id="8IR9IB2kAjyOWW3M31Co-156" value="" style="edgeStyle=elbowEdgeStyle;html=1;endArrow=open;elbow=vertical;endFill=1;rounded=0;exitX=0.5;exitY=0;exitDx=0;exitDy=0;exitPerimeter=0;entryX=0.5;entryY=1;entryDx=0;entryDy=0;entryPerimeter=0;movable=0;resizable=0;rotatable=0;deletable=0;editable=0;locked=1;connectable=0;" edge="1" parent="1" source="8IR9IB2kAjyOWW3M31Co-155" target="8IR9IB2kAjyOWW3M31Co-105">
          <mxGeometry width="160" relative="1" as="geometry">
            <mxPoint x="1980" y="720" as="sourcePoint" />
            <mxPoint x="2510" y="520" as="targetPoint" />
          </mxGeometry>
        </mxCell>
        <mxCell id="8IR9IB2kAjyOWW3M31Co-157" value="" style="edgeStyle=elbowEdgeStyle;html=1;endArrow=block;elbow=vertical;endFill=0;dashed=1;rounded=0;entryX=0.5;entryY=0;entryDx=0;entryDy=0;entryPerimeter=0;movable=0;resizable=0;rotatable=0;deletable=0;editable=0;locked=1;connectable=0;" edge="1" parent="1">
          <mxGeometry width="160" relative="1" as="geometry">
            <mxPoint x="1797" y="750" as="sourcePoint" />
            <mxPoint x="1797" y="775" as="targetPoint" />
          </mxGeometry>
        </mxCell>
        <mxCell id="8IR9IB2kAjyOWW3M31Co-158" value="" style="edgeStyle=elbowEdgeStyle;html=1;endArrow=block;elbow=vertical;endFill=0;dashed=1;rounded=0;exitX=0.5;exitY=1;exitDx=0;exitDy=0;exitPerimeter=0;movable=0;resizable=0;rotatable=0;deletable=0;editable=0;locked=1;connectable=0;" edge="1" parent="1">
          <mxGeometry width="160" relative="1" as="geometry">
            <mxPoint x="1930" y="752.5" as="sourcePoint" />
            <mxPoint x="1930" y="775" as="targetPoint" />
          </mxGeometry>
        </mxCell>
        <mxCell id="8IR9IB2kAjyOWW3M31Co-159" value="" style="edgeStyle=elbowEdgeStyle;html=1;endArrow=block;dashed=0;elbow=vertical;endFill=1;rounded=0;exitX=0.5;exitY=1;exitDx=0;exitDy=0;exitPerimeter=0;movable=0;resizable=0;rotatable=0;deletable=0;editable=0;locked=1;connectable=0;" edge="1" parent="1">
          <mxGeometry width="160" relative="1" as="geometry">
            <mxPoint x="2467.0000000000005" y="750" as="sourcePoint" />
            <mxPoint x="2467.0000000000005" y="775" as="targetPoint" />
          </mxGeometry>
        </mxCell>
        <mxCell id="8IR9IB2kAjyOWW3M31Co-161" value="Viewpoint: As-Is Application Layer" style="text;html=1;align=left;verticalAlign=middle;whiteSpace=wrap;rounded=0;fontStyle=1;movable=0;resizable=0;rotatable=0;deletable=0;editable=0;locked=1;connectable=0;" vertex="1" parent="1">
          <mxGeometry x="1566" y="290" width="330" height="20" as="geometry" />
        </mxCell>
        <mxCell id="8IR9IB2kAjyOWW3M31Co-162" value="" style="html=1;startArrow=diamondThin;startFill=1;edgeStyle=elbowEdgeStyle;elbow=vertical;startSize=10;endArrow=none;endFill=0;rounded=0;entryX=0.75;entryY=1;entryDx=0;entryDy=0;entryPerimeter=0;movable=0;resizable=0;rotatable=0;deletable=0;editable=0;locked=1;connectable=0;" edge="1" parent="1" source="8IR9IB2kAjyOWW3M31Co-88" target="8IR9IB2kAjyOWW3M31Co-85">
          <mxGeometry width="160" relative="1" as="geometry">
            <mxPoint x="2460" y="630" as="sourcePoint" />
            <mxPoint x="2620" y="630" as="targetPoint" />
          </mxGeometry>
        </mxCell>
        <mxCell id="8IR9IB2kAjyOWW3M31Co-198" value="Viewpoint: To-Be Technology &amp;amp; Application Realization" style="text;html=1;align=center;verticalAlign=middle;whiteSpace=wrap;rounded=0;fontStyle=1" vertex="1" parent="1">
          <mxGeometry x="129" y="1530" width="330" height="20" as="geometry" />
        </mxCell>
        <mxCell id="8IR9IB2kAjyOWW3M31Co-204" value="&lt;div&gt;&lt;div&gt;Control Plane Node&lt;/div&gt;&lt;/div&gt;&lt;div&gt;&lt;br&gt;&lt;/div&gt;&lt;div&gt;&lt;br&gt;&lt;/div&gt;&lt;div&gt;&lt;br&gt;&lt;/div&gt;&lt;div&gt;&lt;br&gt;&lt;/div&gt;" style="html=1;outlineConnect=0;whiteSpace=wrap;fillColor=#AFFFAF;shape=mxgraph.archimate3.application;appType=node;archiType=square;" vertex="1" parent="1">
          <mxGeometry x="216" y="1992" width="520" height="83.5" as="geometry" />
        </mxCell>
        <mxCell id="8IR9IB2kAjyOWW3M31Co-205" value="Kubelet" style="html=1;outlineConnect=0;whiteSpace=wrap;fillColor=#AFFFAF;shape=mxgraph.archimate3.application;appType=sysSw;archiType=square;" vertex="1" parent="1">
          <mxGeometry x="236" y="2023.5" width="150" height="35" as="geometry" />
        </mxCell>
        <mxCell id="8IR9IB2kAjyOWW3M31Co-206" value="API Server" style="html=1;outlineConnect=0;whiteSpace=wrap;fillColor=#AFFFAF;shape=mxgraph.archimate3.application;appType=sysSw;archiType=square;" vertex="1" parent="1">
          <mxGeometry x="402.5" y="2023.5" width="145" height="35" as="geometry" />
        </mxCell>
        <mxCell id="8IR9IB2kAjyOWW3M31Co-207" value="Node Agent" style="html=1;outlineConnect=0;whiteSpace=wrap;fillColor=#AFFFAF;shape=mxgraph.archimate3.application;appType=sysSw;archiType=square;" vertex="1" parent="1">
          <mxGeometry x="561" y="2023.5" width="150" height="35" as="geometry" />
        </mxCell>
        <mxCell id="8IR9IB2kAjyOWW3M31Co-216" value="&lt;div&gt;&lt;div&gt;Worker Node&lt;/div&gt;&lt;/div&gt;&lt;div&gt;&lt;br&gt;&lt;/div&gt;&lt;div&gt;&lt;br&gt;&lt;/div&gt;&lt;div&gt;&lt;br&gt;&lt;/div&gt;&lt;div&gt;&lt;br&gt;&lt;/div&gt;&lt;div&gt;&lt;br&gt;&lt;/div&gt;&lt;div&gt;&lt;br&gt;&lt;/div&gt;&lt;div&gt;&lt;br&gt;&lt;/div&gt;&lt;div&gt;&lt;br&gt;&lt;/div&gt;&lt;div&gt;&lt;br&gt;&lt;/div&gt;&lt;div&gt;&lt;br&gt;&lt;/div&gt;" style="html=1;outlineConnect=0;whiteSpace=wrap;fillColor=#AFFFAF;shape=mxgraph.archimate3.application;appType=node;archiType=square;" vertex="1" parent="1">
          <mxGeometry x="380" y="2160" width="200" height="170" as="geometry" />
        </mxCell>
        <mxCell id="8IR9IB2kAjyOWW3M31Co-217" value="Kubelet" style="html=1;outlineConnect=0;whiteSpace=wrap;fillColor=#AFFFAF;shape=mxgraph.archimate3.application;appType=sysSw;archiType=square;" vertex="1" parent="1">
          <mxGeometry x="405" y="2194" width="150" height="35" as="geometry" />
        </mxCell>
        <mxCell id="8IR9IB2kAjyOWW3M31Co-218" value="Application Pods" style="html=1;outlineConnect=0;whiteSpace=wrap;fillColor=#AFFFAF;shape=mxgraph.archimate3.application;appType=sysSw;archiType=square;" vertex="1" parent="1">
          <mxGeometry x="405" y="2235" width="150" height="35" as="geometry" />
        </mxCell>
        <mxCell id="8IR9IB2kAjyOWW3M31Co-219" value="Node Agent" style="html=1;outlineConnect=0;whiteSpace=wrap;fillColor=#AFFFAF;shape=mxgraph.archimate3.application;appType=sysSw;archiType=square;" vertex="1" parent="1">
          <mxGeometry x="405" y="2280" width="150" height="35" as="geometry" />
        </mxCell>
        <mxCell id="8IR9IB2kAjyOWW3M31Co-220" value="&lt;div&gt;&lt;div&gt;Worker Node-n&lt;/div&gt;&lt;/div&gt;&lt;div&gt;&lt;br&gt;&lt;/div&gt;&lt;div&gt;&lt;br&gt;&lt;/div&gt;&lt;div&gt;&lt;br&gt;&lt;/div&gt;&lt;div&gt;&lt;br&gt;&lt;/div&gt;&lt;div&gt;&lt;br&gt;&lt;/div&gt;&lt;div&gt;&lt;br&gt;&lt;/div&gt;&lt;div&gt;&lt;br&gt;&lt;/div&gt;&lt;div&gt;&lt;br&gt;&lt;/div&gt;&lt;div&gt;&lt;br&gt;&lt;/div&gt;&lt;div&gt;&lt;br&gt;&lt;/div&gt;" style="html=1;outlineConnect=0;whiteSpace=wrap;fillColor=#AFFFAF;shape=mxgraph.archimate3.application;appType=node;archiType=square;" vertex="1" parent="1">
          <mxGeometry x="605" y="2160" width="200" height="170" as="geometry" />
        </mxCell>
        <mxCell id="8IR9IB2kAjyOWW3M31Co-221" value="Kubelet" style="html=1;outlineConnect=0;whiteSpace=wrap;fillColor=#AFFFAF;shape=mxgraph.archimate3.application;appType=sysSw;archiType=square;" vertex="1" parent="1">
          <mxGeometry x="630" y="2194" width="150" height="35" as="geometry" />
        </mxCell>
        <mxCell id="8IR9IB2kAjyOWW3M31Co-222" value="Application Pods" style="html=1;outlineConnect=0;whiteSpace=wrap;fillColor=#AFFFAF;shape=mxgraph.archimate3.application;appType=sysSw;archiType=square;" vertex="1" parent="1">
          <mxGeometry x="630" y="2235" width="150" height="35" as="geometry" />
        </mxCell>
        <mxCell id="8IR9IB2kAjyOWW3M31Co-223" value="Node Agent" style="html=1;outlineConnect=0;whiteSpace=wrap;fillColor=#AFFFAF;shape=mxgraph.archimate3.application;appType=sysSw;archiType=square;" vertex="1" parent="1">
          <mxGeometry x="630" y="2280" width="150" height="35" as="geometry" />
        </mxCell>
        <mxCell id="8IR9IB2kAjyOWW3M31Co-232" value="&lt;span class=&quot;_fadeIn_m1hgl_8&quot;&gt;Cluster &lt;/span&gt;&lt;span class=&quot;_fadeIn_m1hgl_8&quot;&gt;State&amp;nbsp;&lt;/span&gt;&lt;div&gt;&lt;span class=&quot;_fadeIn_m1hgl_8&quot;&gt;Storage &lt;/span&gt;&lt;span class=&quot;_fadeIn_m1hgl_8&quot;&gt;Service&lt;/span&gt;&lt;/div&gt;" style="html=1;outlineConnect=0;whiteSpace=wrap;fillColor=#AFFFAF;shape=mxgraph.archimate3.application;appType=serv;archiType=rounded" vertex="1" parent="1">
          <mxGeometry x="182.5" y="2100" width="145" height="38" as="geometry" />
        </mxCell>
        <mxCell id="8IR9IB2kAjyOWW3M31Co-234" value="Metrics and Node Reporting Service" style="html=1;outlineConnect=0;whiteSpace=wrap;fillColor=#AFFFAF;shape=mxgraph.archimate3.application;appType=serv;archiType=rounded" vertex="1" parent="1">
          <mxGeometry x="403" y="2100" width="146" height="38" as="geometry" />
        </mxCell>
        <mxCell id="8IR9IB2kAjyOWW3M31Co-233" value="Container&amp;nbsp;&lt;div&gt;Execution Service&lt;/div&gt;" style="html=1;outlineConnect=0;whiteSpace=wrap;fillColor=#AFFFAF;shape=mxgraph.archimate3.application;appType=serv;archiType=rounded" vertex="1" parent="1">
          <mxGeometry x="648" y="2100" width="145" height="38" as="geometry" />
        </mxCell>
        <mxCell id="8IR9IB2kAjyOWW3M31Co-235" style="edgeStyle=orthogonalEdgeStyle;rounded=0;orthogonalLoop=1;jettySize=auto;html=1;exitX=0.5;exitY=1;exitDx=0;exitDy=0;exitPerimeter=0;" edge="1" parent="1" source="8IR9IB2kAjyOWW3M31Co-233" target="8IR9IB2kAjyOWW3M31Co-233">
          <mxGeometry relative="1" as="geometry" />
        </mxCell>
        <mxCell id="8IR9IB2kAjyOWW3M31Co-236" value="&lt;div&gt;&lt;div&gt;etcd Node&lt;/div&gt;&lt;/div&gt;&lt;div&gt;&lt;br&gt;&lt;/div&gt;&lt;div&gt;&lt;br&gt;&lt;/div&gt;&lt;div&gt;&lt;br&gt;&lt;/div&gt;&lt;div&gt;&lt;br&gt;&lt;/div&gt;&lt;div&gt;&lt;br&gt;&lt;/div&gt;&lt;div&gt;&lt;br&gt;&lt;/div&gt;&lt;div&gt;&lt;br&gt;&lt;/div&gt;&lt;div&gt;&lt;br&gt;&lt;/div&gt;&lt;div&gt;&lt;br&gt;&lt;/div&gt;&lt;div&gt;&lt;br&gt;&lt;/div&gt;" style="html=1;outlineConnect=0;whiteSpace=wrap;fillColor=#AFFFAF;shape=mxgraph.archimate3.application;appType=node;archiType=square;" vertex="1" parent="1">
          <mxGeometry x="155" y="2160" width="200" height="170" as="geometry" />
        </mxCell>
        <mxCell id="8IR9IB2kAjyOWW3M31Co-237" value="Kubelet" style="html=1;outlineConnect=0;whiteSpace=wrap;fillColor=#AFFFAF;shape=mxgraph.archimate3.application;appType=sysSw;archiType=square;" vertex="1" parent="1">
          <mxGeometry x="179" y="2194" width="150" height="35" as="geometry" />
        </mxCell>
        <mxCell id="8IR9IB2kAjyOWW3M31Co-238" value="etcd" style="html=1;outlineConnect=0;whiteSpace=wrap;fillColor=#AFFFAF;shape=mxgraph.archimate3.application;appType=sysSw;archiType=square;" vertex="1" parent="1">
          <mxGeometry x="179" y="2235" width="150" height="35" as="geometry" />
        </mxCell>
        <mxCell id="8IR9IB2kAjyOWW3M31Co-239" value="Node Agent" style="html=1;outlineConnect=0;whiteSpace=wrap;fillColor=#AFFFAF;shape=mxgraph.archimate3.application;appType=sysSw;archiType=square;" vertex="1" parent="1">
          <mxGeometry x="179" y="2280" width="150" height="35" as="geometry" />
        </mxCell>
        <mxCell id="8IR9IB2kAjyOWW3M31Co-241" value="Cluster Management Service" style="html=1;outlineConnect=0;whiteSpace=wrap;fillColor=#AFFFAF;shape=mxgraph.archimate3.application;appType=serv;archiType=rounded" vertex="1" parent="1">
          <mxGeometry x="236" y="1910" width="156" height="38" as="geometry" />
        </mxCell>
        <mxCell id="8IR9IB2kAjyOWW3M31Co-242" value="API Management&amp;nbsp;&lt;div&gt;Service&lt;/div&gt;" style="html=1;outlineConnect=0;whiteSpace=wrap;fillColor=#AFFFAF;shape=mxgraph.archimate3.application;appType=serv;archiType=rounded" vertex="1" parent="1">
          <mxGeometry x="555" y="1910" width="156" height="38" as="geometry" />
        </mxCell>
        <mxCell id="8IR9IB2kAjyOWW3M31Co-244" value="" style="edgeStyle=elbowEdgeStyle;html=1;endArrow=open;elbow=vertical;endFill=1;rounded=0;exitX=0.5;exitY=0;exitDx=0;exitDy=0;exitPerimeter=0;entryX=0.5;entryY=1;entryDx=0;entryDy=0;entryPerimeter=0;" edge="1" parent="1" source="8IR9IB2kAjyOWW3M31Co-236" target="8IR9IB2kAjyOWW3M31Co-232">
          <mxGeometry width="160" relative="1" as="geometry">
            <mxPoint x="470" y="2340" as="sourcePoint" />
            <mxPoint x="630" y="2340" as="targetPoint" />
          </mxGeometry>
        </mxCell>
        <mxCell id="8IR9IB2kAjyOWW3M31Co-254" value="" style="edgeStyle=elbowEdgeStyle;html=1;endArrow=open;elbow=vertical;endFill=1;rounded=0;entryX=0.5;entryY=1;entryDx=0;entryDy=0;entryPerimeter=0;" edge="1" parent="1" target="8IR9IB2kAjyOWW3M31Co-234">
          <mxGeometry width="160" relative="1" as="geometry">
            <mxPoint x="500" y="2160" as="sourcePoint" />
            <mxPoint x="495" y="2140" as="targetPoint" />
          </mxGeometry>
        </mxCell>
        <mxCell id="8IR9IB2kAjyOWW3M31Co-255" value="" style="edgeStyle=elbowEdgeStyle;html=1;endArrow=open;elbow=vertical;endFill=1;rounded=0;exitX=0.5;exitY=0;exitDx=0;exitDy=0;exitPerimeter=0;entryX=0.5;entryY=1;entryDx=0;entryDy=0;entryPerimeter=0;" edge="1" parent="1" source="8IR9IB2kAjyOWW3M31Co-220" target="8IR9IB2kAjyOWW3M31Co-233">
          <mxGeometry width="160" relative="1" as="geometry">
            <mxPoint x="520" y="2180" as="sourcePoint" />
            <mxPoint x="680" y="2180" as="targetPoint" />
          </mxGeometry>
        </mxCell>
        <mxCell id="8IR9IB2kAjyOWW3M31Co-256" value="" style="edgeStyle=elbowEdgeStyle;html=1;endArrow=open;elbow=vertical;endFill=1;rounded=0;exitX=0.25;exitY=0;exitDx=0;exitDy=0;exitPerimeter=0;" edge="1" parent="1" source="8IR9IB2kAjyOWW3M31Co-220" target="8IR9IB2kAjyOWW3M31Co-234">
          <mxGeometry width="160" relative="1" as="geometry">
            <mxPoint x="520" y="2180" as="sourcePoint" />
            <mxPoint x="680" y="2180" as="targetPoint" />
            <Array as="points" />
          </mxGeometry>
        </mxCell>
        <mxCell id="8IR9IB2kAjyOWW3M31Co-257" value="" style="edgeStyle=elbowEdgeStyle;html=1;endArrow=open;elbow=vertical;endFill=1;rounded=0;exitX=0.75;exitY=0;exitDx=0;exitDy=0;exitPerimeter=0;" edge="1" parent="1">
          <mxGeometry width="160" relative="1" as="geometry">
            <mxPoint x="545" y="2159" as="sourcePoint" />
            <mxPoint x="720" y="2139" as="targetPoint" />
          </mxGeometry>
        </mxCell>
        <mxCell id="8IR9IB2kAjyOWW3M31Co-260" value="" style="edgeStyle=elbowEdgeStyle;html=1;endArrow=open;elbow=vertical;endFill=1;rounded=0;exitX=0.5;exitY=0;exitDx=0;exitDy=0;exitPerimeter=0;" edge="1" parent="1" source="8IR9IB2kAjyOWW3M31Co-233" target="8IR9IB2kAjyOWW3M31Co-204">
          <mxGeometry width="160" relative="1" as="geometry">
            <mxPoint x="520" y="2180" as="sourcePoint" />
            <mxPoint x="680" y="2180" as="targetPoint" />
          </mxGeometry>
        </mxCell>
        <mxCell id="8IR9IB2kAjyOWW3M31Co-261" value="" style="edgeStyle=elbowEdgeStyle;html=1;endArrow=open;elbow=vertical;endFill=1;rounded=0;entryX=0.5;entryY=1;entryDx=0;entryDy=0;entryPerimeter=0;" edge="1" parent="1" source="8IR9IB2kAjyOWW3M31Co-234" target="8IR9IB2kAjyOWW3M31Co-204">
          <mxGeometry width="160" relative="1" as="geometry">
            <mxPoint x="390" y="2180" as="sourcePoint" />
            <mxPoint x="500" y="2080" as="targetPoint" />
          </mxGeometry>
        </mxCell>
        <mxCell id="8IR9IB2kAjyOWW3M31Co-263" value="" style="edgeStyle=elbowEdgeStyle;html=1;endArrow=open;elbow=vertical;endFill=1;rounded=0;exitX=0.5;exitY=0;exitDx=0;exitDy=0;exitPerimeter=0;entryX=0.5;entryY=1;entryDx=0;entryDy=0;entryPerimeter=0;" edge="1" parent="1" source="8IR9IB2kAjyOWW3M31Co-232" target="8IR9IB2kAjyOWW3M31Co-204">
          <mxGeometry width="160" relative="1" as="geometry">
            <mxPoint x="390" y="2180" as="sourcePoint" />
            <mxPoint x="550" y="2180" as="targetPoint" />
          </mxGeometry>
        </mxCell>
        <mxCell id="8IR9IB2kAjyOWW3M31Co-266" value="" style="edgeStyle=elbowEdgeStyle;html=1;endArrow=open;elbow=vertical;endFill=0;dashed=1;dashPattern=1 4;rounded=0;exitX=0.25;exitY=1;exitDx=0;exitDy=0;exitPerimeter=0;entryX=0.25;entryY=0;entryDx=0;entryDy=0;entryPerimeter=0;" edge="1" parent="1" source="8IR9IB2kAjyOWW3M31Co-265" target="8IR9IB2kAjyOWW3M31Co-204">
          <mxGeometry width="160" relative="1" as="geometry">
            <mxPoint x="410" y="2050" as="sourcePoint" />
            <mxPoint x="570" y="2050" as="targetPoint" />
          </mxGeometry>
        </mxCell>
        <mxCell id="8IR9IB2kAjyOWW3M31Co-267" value="" style="edgeStyle=elbowEdgeStyle;html=1;endArrow=block;elbow=vertical;endFill=0;dashed=1;rounded=0;exitX=0.5;exitY=0;exitDx=0;exitDy=0;exitPerimeter=0;entryX=0.5;entryY=1;entryDx=0;entryDy=0;entryPerimeter=0;" edge="1" parent="1">
          <mxGeometry width="160" relative="1" as="geometry">
            <mxPoint x="644" y="1992" as="sourcePoint" />
            <mxPoint x="644" y="1961.5" as="targetPoint" />
          </mxGeometry>
        </mxCell>
        <mxCell id="8IR9IB2kAjyOWW3M31Co-294" value="" style="edgeStyle=elbowEdgeStyle;html=1;endArrow=open;elbow=vertical;endFill=1;rounded=0;entryX=0.5;entryY=1;entryDx=0;entryDy=0;entryPerimeter=0;" edge="1" parent="1" source="8IR9IB2kAjyOWW3M31Co-169" target="8IR9IB2kAjyOWW3M31Co-268">
          <mxGeometry width="160" relative="1" as="geometry">
            <mxPoint x="400" y="1830" as="sourcePoint" />
            <mxPoint x="560" y="1830" as="targetPoint" />
          </mxGeometry>
        </mxCell>
        <mxCell id="8IR9IB2kAjyOWW3M31Co-190" value="" style="edgeStyle=elbowEdgeStyle;html=1;endArrow=block;elbow=vertical;endFill=0;dashed=1;rounded=0;entryX=0.552;entryY=0.923;entryDx=0;entryDy=0;entryPerimeter=0;" edge="1" parent="1">
          <mxGeometry width="160" relative="1" as="geometry">
            <mxPoint x="1088" y="1943" as="sourcePoint" />
            <mxPoint x="1087.92" y="1902.995" as="targetPoint" />
          </mxGeometry>
        </mxCell>
        <mxCell id="8IR9IB2kAjyOWW3M31Co-164" value="&lt;div&gt;Data Standardization Management&lt;/div&gt;&lt;div&gt;&lt;br&gt;&lt;/div&gt;&lt;div&gt;&lt;br&gt;&lt;/div&gt;&lt;div&gt;&lt;br&gt;&lt;/div&gt;&lt;div&gt;&lt;br&gt;&lt;/div&gt;&lt;div&gt;&lt;br&gt;&lt;/div&gt;&lt;div&gt;&lt;br&gt;&lt;/div&gt;&lt;div&gt;&lt;br&gt;&lt;/div&gt;&lt;div&gt;&lt;br&gt;&lt;/div&gt;&lt;div&gt;&lt;br&gt;&lt;/div&gt;&lt;div&gt;&lt;br&gt;&lt;/div&gt;&lt;div&gt;&lt;br&gt;&lt;/div&gt;&lt;div&gt;&lt;br&gt;&lt;/div&gt;&lt;div&gt;&lt;br&gt;&lt;/div&gt;&lt;div&gt;&lt;br&gt;&lt;/div&gt;&lt;div&gt;&lt;br&gt;&lt;/div&gt;&lt;div&gt;&lt;br&gt;&lt;/div&gt;" style="html=1;outlineConnect=0;whiteSpace=wrap;fillColor=#99ffff;shape=mxgraph.archimate3.application;appType=collab;archiType=square;" vertex="1" parent="1">
          <mxGeometry x="1052" y="2100" width="437" height="259" as="geometry" />
        </mxCell>
        <mxCell id="8IR9IB2kAjyOWW3M31Co-300" value="Docker Containers&lt;div&gt;&lt;br&gt;&lt;/div&gt;&lt;div&gt;&lt;br&gt;&lt;/div&gt;&lt;div&gt;&lt;br&gt;&lt;/div&gt;&lt;div&gt;&lt;br&gt;&lt;/div&gt;&lt;div&gt;&lt;br&gt;&lt;/div&gt;&lt;div&gt;&lt;br&gt;&lt;/div&gt;&lt;div&gt;&lt;br&gt;&lt;/div&gt;&lt;div&gt;&lt;br&gt;&lt;/div&gt;&lt;div&gt;&lt;br&gt;&lt;/div&gt;&lt;div&gt;&lt;br&gt;&lt;/div&gt;&lt;div&gt;&lt;br&gt;&lt;/div&gt;&lt;div&gt;&lt;br&gt;&lt;/div&gt;&lt;div&gt;&lt;br&gt;&lt;/div&gt;&lt;div&gt;&lt;br&gt;&lt;/div&gt;&lt;div&gt;&lt;br&gt;&lt;/div&gt;&lt;div&gt;&lt;br&gt;&lt;/div&gt;&lt;div&gt;&lt;br&gt;&lt;/div&gt;&lt;div&gt;&lt;br&gt;&lt;/div&gt;&lt;div&gt;&lt;br&gt;&lt;/div&gt;&lt;div&gt;&lt;br&gt;&lt;/div&gt;&lt;div&gt;&lt;br&gt;&lt;/div&gt;&lt;div&gt;&lt;br&gt;&lt;/div&gt;&lt;div&gt;&lt;br&gt;&lt;/div&gt;&lt;div&gt;&lt;br&gt;&lt;/div&gt;&lt;div&gt;&lt;br&gt;&lt;/div&gt;&lt;div&gt;&lt;br&gt;&lt;/div&gt;&lt;div&gt;&lt;br&gt;&lt;/div&gt;&lt;div&gt;&lt;br&gt;&lt;/div&gt;&lt;div&gt;&lt;br&gt;&lt;/div&gt;&lt;div&gt;&lt;br&gt;&lt;/div&gt;&lt;div&gt;&lt;br&gt;&lt;/div&gt;&lt;div&gt;&lt;br&gt;&lt;/div&gt;&lt;div&gt;&lt;br&gt;&lt;/div&gt;&lt;div&gt;&lt;br&gt;&lt;/div&gt;" style="html=1;outlineConnect=0;whiteSpace=wrap;fillColor=#AFFFAF;shape=mxgraph.archimate3.application;appType=collab;archiType=square;" vertex="1" parent="1">
          <mxGeometry x="860" y="1840" width="160" height="520" as="geometry" />
        </mxCell>
        <mxCell id="8IR9IB2kAjyOWW3M31Co-312" value="&lt;div&gt;Identity &amp;amp; Access Management&lt;/div&gt;&lt;div&gt;&lt;br&gt;&lt;/div&gt;&lt;div&gt;&lt;br&gt;&lt;/div&gt;" style="html=1;outlineConnect=0;whiteSpace=wrap;fillColor=#99ffff;shape=mxgraph.archimate3.application;appType=comp;archiType=square;" vertex="1" parent="1">
          <mxGeometry x="1053" y="1570" width="437" height="50" as="geometry" />
        </mxCell>
        <mxCell id="8IR9IB2kAjyOWW3M31Co-184" value="OAuth 2.0" style="html=1;outlineConnect=0;whiteSpace=wrap;fillColor=#99ffff;shape=mxgraph.archimate3.application;appType=serv;archiType=rounded" vertex="1" parent="1">
          <mxGeometry x="1210" y="1589.25" width="110" height="25" as="geometry" />
        </mxCell>
        <mxCell id="8IR9IB2kAjyOWW3M31Co-177" value="IAM Service" style="html=1;outlineConnect=0;whiteSpace=wrap;fillColor=#99ffff;shape=mxgraph.archimate3.application;appType=serv;archiType=rounded" vertex="1" parent="1">
          <mxGeometry x="1350" y="1589.25" width="110" height="25" as="geometry" />
        </mxCell>
        <mxCell id="8IR9IB2kAjyOWW3M31Co-314" value="ATNA" style="html=1;outlineConnect=0;whiteSpace=wrap;fillColor=#99ffff;shape=mxgraph.archimate3.application;appType=serv;archiType=rounded" vertex="1" parent="1">
          <mxGeometry x="1070" y="1589.25" width="110" height="25" as="geometry" />
        </mxCell>
        <mxCell id="8IR9IB2kAjyOWW3M31Co-315" value="FHIR Server" style="html=1;outlineConnect=0;whiteSpace=wrap;fillColor=#99ffff;shape=mxgraph.archimate3.application;appType=comp;archiType=square;" vertex="1" parent="1">
          <mxGeometry x="1113" y="2180" width="150" height="39" as="geometry" />
        </mxCell>
        <mxCell id="8IR9IB2kAjyOWW3M31Co-316" value="HAPI Console" style="html=1;outlineConnect=0;whiteSpace=wrap;fillColor=#99ffff;shape=mxgraph.archimate3.application;appType=interface;archiType=square;" vertex="1" parent="1">
          <mxGeometry x="1283" y="2179" width="150" height="42" as="geometry" />
        </mxCell>
        <mxCell id="8IR9IB2kAjyOWW3M31Co-317" value="FHIR Data Transformation Service" style="html=1;outlineConnect=0;whiteSpace=wrap;fillColor=#99ffff;shape=mxgraph.archimate3.application;appType=serv;archiType=rounded" vertex="1" parent="1">
          <mxGeometry x="1112.5" y="2128" width="318" height="32" as="geometry" />
        </mxCell>
        <mxCell id="8IR9IB2kAjyOWW3M31Co-318" value="Terminology Server" style="html=1;outlineConnect=0;whiteSpace=wrap;fillColor=#99ffff;shape=mxgraph.archimate3.application;appType=comp;archiType=square;" vertex="1" parent="1">
          <mxGeometry x="1113" y="2237" width="150" height="39" as="geometry" />
        </mxCell>
        <mxCell id="8IR9IB2kAjyOWW3M31Co-319" value="TermX Console" style="html=1;outlineConnect=0;whiteSpace=wrap;fillColor=#99ffff;shape=mxgraph.archimate3.application;appType=interface;archiType=square;" vertex="1" parent="1">
          <mxGeometry x="1283" y="2235" width="150" height="42" as="geometry" />
        </mxCell>
        <mxCell id="8IR9IB2kAjyOWW3M31Co-320" value="Database&amp;nbsp;&lt;div&gt;Management&lt;div&gt;System&lt;/div&gt;&lt;/div&gt;" style="html=1;outlineConnect=0;whiteSpace=wrap;fillColor=#99ffff;shape=mxgraph.archimate3.application;appType=comp;archiType=square;" vertex="1" parent="1">
          <mxGeometry x="1113" y="2288.75" width="150" height="55" as="geometry" />
        </mxCell>
        <mxCell id="8IR9IB2kAjyOWW3M31Co-321" value="FHIR Data Repository" style="html=1;outlineConnect=0;whiteSpace=wrap;fillColor=#99ffff;shape=mxgraph.archimate3.application;appType=passive;archiType=square;" vertex="1" parent="1">
          <mxGeometry x="1283" y="2289.5" width="150" height="55" as="geometry" />
        </mxCell>
        <mxCell id="8IR9IB2kAjyOWW3M31Co-322" value="&lt;div&gt;Database Management System&lt;/div&gt;" style="html=1;outlineConnect=0;whiteSpace=wrap;fillColor=#99ffff;shape=mxgraph.archimate3.application;appType=comp;archiType=square;" vertex="1" parent="1">
          <mxGeometry x="1072" y="2003.75" width="397" height="50" as="geometry" />
        </mxCell>
        <mxCell id="8IR9IB2kAjyOWW3M31Co-323" value="" style="group" vertex="1" connectable="0" parent="1">
          <mxGeometry x="129" y="1690" width="702" height="106" as="geometry" />
        </mxCell>
        <mxCell id="8IR9IB2kAjyOWW3M31Co-268" value="Kubernetes Administrator&amp;nbsp;&lt;span style=&quot;background-color: transparent; color: light-dark(rgb(0, 0, 0), rgb(255, 255, 255));&quot;&gt;Controller&lt;/span&gt;&lt;div&gt;&lt;br&gt;&lt;/div&gt;&lt;div&gt;&lt;br&gt;&lt;/div&gt;&lt;div&gt;&lt;div&gt;&lt;div&gt;&lt;br&gt;&lt;/div&gt;&lt;div&gt;&lt;br&gt;&lt;/div&gt;&lt;/div&gt;&lt;/div&gt;" style="html=1;outlineConnect=0;whiteSpace=wrap;fillColor=#99ffff;shape=mxgraph.archimate3.application;appType=collab;archiType=square;" vertex="1" parent="8IR9IB2kAjyOWW3M31Co-323">
          <mxGeometry width="702" height="106" as="geometry" />
        </mxCell>
        <mxCell id="8IR9IB2kAjyOWW3M31Co-269" value="Cluster Controller" style="html=1;outlineConnect=0;whiteSpace=wrap;fillColor=#99ffff;shape=mxgraph.archimate3.application;appType=comp;archiType=square;" vertex="1" parent="8IR9IB2kAjyOWW3M31Co-323">
          <mxGeometry x="276" y="45.42857142857143" width="150" height="44.166666666666664" as="geometry" />
        </mxCell>
        <mxCell id="8IR9IB2kAjyOWW3M31Co-270" value="Authentication Proxy" style="html=1;outlineConnect=0;whiteSpace=wrap;fillColor=#99ffff;shape=mxgraph.archimate3.application;appType=serv;archiType=rounded" vertex="1" parent="8IR9IB2kAjyOWW3M31Co-323">
          <mxGeometry x="460" y="46.69047619047619" width="150" height="42.904761904761905" as="geometry" />
        </mxCell>
        <mxCell id="8IR9IB2kAjyOWW3M31Co-288" value="Rancher Console" style="html=1;outlineConnect=0;whiteSpace=wrap;fillColor=#99ffff;shape=mxgraph.archimate3.application;appType=interface;archiType=square;" vertex="1" parent="8IR9IB2kAjyOWW3M31Co-323">
          <mxGeometry x="76" y="46.05952380952381" width="150" height="44.166666666666664" as="geometry" />
        </mxCell>
        <mxCell id="8IR9IB2kAjyOWW3M31Co-292" value="" style="edgeStyle=elbowEdgeStyle;html=1;endArrow=open;elbow=vertical;endFill=0;dashed=1;startArrow=open;startFill=0;dashPattern=1 4;rounded=0;" edge="1" parent="8IR9IB2kAjyOWW3M31Co-323" source="8IR9IB2kAjyOWW3M31Co-270" target="8IR9IB2kAjyOWW3M31Co-269">
          <mxGeometry width="160" relative="1" as="geometry">
            <mxPoint x="271" y="113.57142857142857" as="sourcePoint" />
            <mxPoint x="421" y="71.92857142857143" as="targetPoint" />
            <Array as="points">
              <mxPoint x="561" y="69.4047619047619" />
            </Array>
          </mxGeometry>
        </mxCell>
        <mxCell id="8IR9IB2kAjyOWW3M31Co-291" value="" style="edgeStyle=elbowEdgeStyle;html=1;endArrow=block;elbow=vertical;endFill=0;dashed=1;rounded=0;exitX=0;exitY=0.5;exitDx=0;exitDy=0;exitPerimeter=0;" edge="1" parent="8IR9IB2kAjyOWW3M31Co-323" source="8IR9IB2kAjyOWW3M31Co-269" target="8IR9IB2kAjyOWW3M31Co-288">
          <mxGeometry width="160" relative="1" as="geometry">
            <mxPoint x="281" y="126.19047619047619" as="sourcePoint" />
            <mxPoint x="231" y="71.92857142857143" as="targetPoint" />
          </mxGeometry>
        </mxCell>
        <mxCell id="8IR9IB2kAjyOWW3M31Co-327" value="" style="group" vertex="1" connectable="0" parent="1">
          <mxGeometry x="880" y="1875.5" width="120" height="64.5" as="geometry" />
        </mxCell>
        <mxCell id="8IR9IB2kAjyOWW3M31Co-326" value="Container-1&lt;div&gt;&lt;br&gt;&lt;/div&gt;&lt;div&gt;&lt;br&gt;&lt;/div&gt;&lt;div&gt;&lt;br&gt;&lt;/div&gt;" style="html=1;outlineConnect=0;whiteSpace=wrap;fillColor=#AFFFAF;shape=mxgraph.archimate3.application;appType=sysSw;archiType=square;" vertex="1" parent="8IR9IB2kAjyOWW3M31Co-327">
          <mxGeometry width="120" height="64.5" as="geometry" />
        </mxCell>
        <mxCell id="8IR9IB2kAjyOWW3M31Co-301" value="Image" style="html=1;outlineConnect=0;whiteSpace=wrap;fillColor=#AFFFAF;shape=mxgraph.archimate3.application;appType=artifact;archiType=square;" vertex="1" parent="8IR9IB2kAjyOWW3M31Co-327">
          <mxGeometry x="19.25" y="24.5" width="78.5" height="26.5" as="geometry" />
        </mxCell>
        <mxCell id="8IR9IB2kAjyOWW3M31Co-331" value="" style="group" vertex="1" connectable="0" parent="1">
          <mxGeometry x="880" y="1960" width="120" height="64.5" as="geometry" />
        </mxCell>
        <mxCell id="8IR9IB2kAjyOWW3M31Co-332" value="Container-2&lt;div&gt;&lt;br&gt;&lt;/div&gt;&lt;div&gt;&lt;br&gt;&lt;/div&gt;&lt;div&gt;&lt;br&gt;&lt;/div&gt;" style="html=1;outlineConnect=0;whiteSpace=wrap;fillColor=#AFFFAF;shape=mxgraph.archimate3.application;appType=sysSw;archiType=square;" vertex="1" parent="8IR9IB2kAjyOWW3M31Co-331">
          <mxGeometry width="120" height="64.5" as="geometry" />
        </mxCell>
        <mxCell id="8IR9IB2kAjyOWW3M31Co-333" value="Image" style="html=1;outlineConnect=0;whiteSpace=wrap;fillColor=#AFFFAF;shape=mxgraph.archimate3.application;appType=artifact;archiType=square;" vertex="1" parent="8IR9IB2kAjyOWW3M31Co-331">
          <mxGeometry x="19.25" y="24.5" width="78.5" height="26.5" as="geometry" />
        </mxCell>
        <mxCell id="8IR9IB2kAjyOWW3M31Co-334" value="" style="group" vertex="1" connectable="0" parent="1">
          <mxGeometry x="880" y="2040" width="120" height="64.5" as="geometry" />
        </mxCell>
        <mxCell id="8IR9IB2kAjyOWW3M31Co-335" value="Container-3&lt;div&gt;&lt;br&gt;&lt;/div&gt;&lt;div&gt;&lt;br&gt;&lt;/div&gt;&lt;div&gt;&lt;br&gt;&lt;/div&gt;" style="html=1;outlineConnect=0;whiteSpace=wrap;fillColor=#AFFFAF;shape=mxgraph.archimate3.application;appType=sysSw;archiType=square;" vertex="1" parent="8IR9IB2kAjyOWW3M31Co-334">
          <mxGeometry width="120" height="64.5" as="geometry" />
        </mxCell>
        <mxCell id="8IR9IB2kAjyOWW3M31Co-336" value="Image" style="html=1;outlineConnect=0;whiteSpace=wrap;fillColor=#AFFFAF;shape=mxgraph.archimate3.application;appType=artifact;archiType=square;" vertex="1" parent="8IR9IB2kAjyOWW3M31Co-334">
          <mxGeometry x="19.25" y="24.5" width="78.5" height="26.5" as="geometry" />
        </mxCell>
        <mxCell id="8IR9IB2kAjyOWW3M31Co-344" value="" style="group" vertex="1" connectable="0" parent="1">
          <mxGeometry x="880" y="2120" width="120" height="64.5" as="geometry" />
        </mxCell>
        <mxCell id="8IR9IB2kAjyOWW3M31Co-345" value="Container-4&lt;div&gt;&lt;br&gt;&lt;/div&gt;&lt;div&gt;&lt;br&gt;&lt;/div&gt;&lt;div&gt;&lt;br&gt;&lt;/div&gt;" style="html=1;outlineConnect=0;whiteSpace=wrap;fillColor=#AFFFAF;shape=mxgraph.archimate3.application;appType=sysSw;archiType=square;" vertex="1" parent="8IR9IB2kAjyOWW3M31Co-344">
          <mxGeometry width="120" height="64.5" as="geometry" />
        </mxCell>
        <mxCell id="8IR9IB2kAjyOWW3M31Co-346" value="Image" style="html=1;outlineConnect=0;whiteSpace=wrap;fillColor=#AFFFAF;shape=mxgraph.archimate3.application;appType=artifact;archiType=square;" vertex="1" parent="8IR9IB2kAjyOWW3M31Co-344">
          <mxGeometry x="19.25" y="24.5" width="78.5" height="26.5" as="geometry" />
        </mxCell>
        <mxCell id="8IR9IB2kAjyOWW3M31Co-347" value="" style="group" vertex="1" connectable="0" parent="1">
          <mxGeometry x="880" y="2200" width="120" height="64.5" as="geometry" />
        </mxCell>
        <mxCell id="8IR9IB2kAjyOWW3M31Co-348" value="Container-5&lt;div&gt;&lt;br&gt;&lt;/div&gt;&lt;div&gt;&lt;br&gt;&lt;/div&gt;&lt;div&gt;&lt;br&gt;&lt;/div&gt;" style="html=1;outlineConnect=0;whiteSpace=wrap;fillColor=#AFFFAF;shape=mxgraph.archimate3.application;appType=sysSw;archiType=square;" vertex="1" parent="8IR9IB2kAjyOWW3M31Co-347">
          <mxGeometry width="120" height="64.5" as="geometry" />
        </mxCell>
        <mxCell id="8IR9IB2kAjyOWW3M31Co-349" value="Image" style="html=1;outlineConnect=0;whiteSpace=wrap;fillColor=#AFFFAF;shape=mxgraph.archimate3.application;appType=artifact;archiType=square;" vertex="1" parent="8IR9IB2kAjyOWW3M31Co-347">
          <mxGeometry x="19.25" y="24.5" width="78.5" height="26.5" as="geometry" />
        </mxCell>
        <mxCell id="8IR9IB2kAjyOWW3M31Co-353" value="" style="group" vertex="1" connectable="0" parent="1">
          <mxGeometry x="880" y="2280" width="120" height="64.5" as="geometry" />
        </mxCell>
        <mxCell id="8IR9IB2kAjyOWW3M31Co-354" value="Container-6&lt;div&gt;&lt;br&gt;&lt;/div&gt;&lt;div&gt;&lt;br&gt;&lt;/div&gt;&lt;div&gt;&lt;br&gt;&lt;/div&gt;" style="html=1;outlineConnect=0;whiteSpace=wrap;fillColor=#AFFFAF;shape=mxgraph.archimate3.application;appType=sysSw;archiType=square;" vertex="1" parent="8IR9IB2kAjyOWW3M31Co-353">
          <mxGeometry width="120" height="64.5" as="geometry" />
        </mxCell>
        <mxCell id="8IR9IB2kAjyOWW3M31Co-355" value="Image" style="html=1;outlineConnect=0;whiteSpace=wrap;fillColor=#AFFFAF;shape=mxgraph.archimate3.application;appType=artifact;archiType=square;" vertex="1" parent="8IR9IB2kAjyOWW3M31Co-353">
          <mxGeometry x="19.25" y="24.5" width="78.5" height="26.5" as="geometry" />
        </mxCell>
        <mxCell id="8IR9IB2kAjyOWW3M31Co-356" value="" style="edgeStyle=elbowEdgeStyle;html=1;endArrow=open;elbow=vertical;endFill=1;rounded=0;" edge="1" parent="1">
          <mxGeometry width="160" relative="1" as="geometry">
            <mxPoint x="830" y="2068.6153846153843" as="sourcePoint" />
            <mxPoint x="860" y="2069" as="targetPoint" />
          </mxGeometry>
        </mxCell>
        <mxCell id="8IR9IB2kAjyOWW3M31Co-357" value="" style="edgeStyle=elbowEdgeStyle;html=1;endArrow=block;elbow=vertical;endFill=0;dashed=1;rounded=0;" edge="1" parent="1" source="8IR9IB2kAjyOWW3M31Co-300" target="8IR9IB2kAjyOWW3M31Co-164">
          <mxGeometry width="160" relative="1" as="geometry">
            <mxPoint x="730" y="2150" as="sourcePoint" />
            <mxPoint x="890" y="2150" as="targetPoint" />
          </mxGeometry>
        </mxCell>
        <mxCell id="8IR9IB2kAjyOWW3M31Co-364" value="" style="group" vertex="1" connectable="0" parent="1">
          <mxGeometry x="1283" y="1733" width="190" height="260" as="geometry" />
        </mxCell>
        <mxCell id="8IR9IB2kAjyOWW3M31Co-166" value="Service&amp;nbsp;&lt;div&gt;Management&lt;div&gt;&lt;br&gt;&lt;/div&gt;&lt;div&gt;&lt;br&gt;&lt;/div&gt;&lt;div&gt;&lt;br&gt;&lt;/div&gt;&lt;div&gt;&lt;br&gt;&lt;/div&gt;&lt;div&gt;&lt;br&gt;&lt;/div&gt;&lt;div&gt;&lt;br&gt;&lt;/div&gt;&lt;div&gt;&lt;br&gt;&lt;div&gt;&lt;br&gt;&lt;/div&gt;&lt;div&gt;&lt;br&gt;&lt;/div&gt;&lt;div&gt;&lt;br&gt;&lt;/div&gt;&lt;/div&gt;&lt;/div&gt;&lt;div&gt;&lt;br&gt;&lt;/div&gt;&lt;div&gt;&lt;br&gt;&lt;/div&gt;&lt;div&gt;&lt;br&gt;&lt;/div&gt;&lt;div&gt;&lt;br&gt;&lt;/div&gt;" style="html=1;outlineConnect=0;whiteSpace=wrap;fillColor=#99ffff;shape=mxgraph.archimate3.application;appType=comp;archiType=square;" vertex="1" parent="8IR9IB2kAjyOWW3M31Co-364">
          <mxGeometry width="190" height="260" as="geometry" />
        </mxCell>
        <mxCell id="8IR9IB2kAjyOWW3M31Co-178" value="Pub/Sub Messaging Service" style="html=1;outlineConnect=0;whiteSpace=wrap;fillColor=#99ffff;shape=mxgraph.archimate3.application;appType=serv;archiType=rounded" vertex="1" parent="8IR9IB2kAjyOWW3M31Co-364">
          <mxGeometry x="20" y="67" width="150" height="40" as="geometry" />
        </mxCell>
        <mxCell id="8IR9IB2kAjyOWW3M31Co-309" value="Memory Cache" style="html=1;outlineConnect=0;whiteSpace=wrap;fillColor=#99ffff;shape=mxgraph.archimate3.application;appType=serv;archiType=rounded" vertex="1" parent="8IR9IB2kAjyOWW3M31Co-364">
          <mxGeometry x="20" y="191" width="150" height="40" as="geometry" />
        </mxCell>
        <mxCell id="8IR9IB2kAjyOWW3M31Co-310" value="Task Scheduler" style="html=1;outlineConnect=0;whiteSpace=wrap;fillColor=#99ffff;shape=mxgraph.archimate3.application;appType=serv;archiType=rounded" vertex="1" parent="8IR9IB2kAjyOWW3M31Co-364">
          <mxGeometry x="20" y="127" width="150" height="40" as="geometry" />
        </mxCell>
        <mxCell id="8IR9IB2kAjyOWW3M31Co-186" style="edgeStyle=orthogonalEdgeStyle;rounded=0;orthogonalLoop=1;jettySize=auto;html=1;exitX=0.5;exitY=1;exitDx=0;exitDy=0;exitPerimeter=0;" edge="1" parent="8IR9IB2kAjyOWW3M31Co-364" source="8IR9IB2kAjyOWW3M31Co-178" target="8IR9IB2kAjyOWW3M31Co-178">
          <mxGeometry relative="1" as="geometry" />
        </mxCell>
        <mxCell id="8IR9IB2kAjyOWW3M31Co-365" value="" style="group" vertex="1" connectable="0" parent="1">
          <mxGeometry x="1073" y="1733" width="190" height="260" as="geometry" />
        </mxCell>
        <mxCell id="8IR9IB2kAjyOWW3M31Co-165" value="&lt;div&gt;&lt;div&gt;Core Application&lt;/div&gt;&lt;/div&gt;&lt;div&gt;&lt;br&gt;&lt;/div&gt;&lt;div&gt;&lt;br&gt;&lt;/div&gt;&lt;div&gt;&lt;br&gt;&lt;/div&gt;&lt;div&gt;&lt;br&gt;&lt;/div&gt;&lt;div&gt;&lt;br&gt;&lt;/div&gt;&lt;div&gt;&lt;br&gt;&lt;/div&gt;&lt;div&gt;&lt;br&gt;&lt;/div&gt;&lt;div&gt;&lt;br&gt;&lt;/div&gt;&lt;div&gt;&lt;br&gt;&lt;/div&gt;&lt;div&gt;&lt;br&gt;&lt;/div&gt;&lt;div&gt;&lt;br&gt;&lt;/div&gt;&lt;div&gt;&lt;br&gt;&lt;/div&gt;&lt;div&gt;&lt;br&gt;&lt;/div&gt;&lt;div&gt;&lt;br&gt;&lt;/div&gt;" style="html=1;outlineConnect=0;whiteSpace=wrap;fillColor=#99ffff;shape=mxgraph.archimate3.application;appType=comp;archiType=square;" vertex="1" parent="8IR9IB2kAjyOWW3M31Co-365">
          <mxGeometry width="190" height="260" as="geometry" />
        </mxCell>
        <mxCell id="8IR9IB2kAjyOWW3M31Co-179" value="Patient Record Management Service" style="html=1;outlineConnect=0;whiteSpace=wrap;fillColor=#99ffff;shape=mxgraph.archimate3.application;appType=serv;archiType=rounded" vertex="1" parent="8IR9IB2kAjyOWW3M31Co-365">
          <mxGeometry x="20" y="55" width="150" height="75" as="geometry" />
        </mxCell>
        <mxCell id="8IR9IB2kAjyOWW3M31Co-182" value="Business Logic and Data Validation Service" style="html=1;outlineConnect=0;whiteSpace=wrap;fillColor=#99ffff;shape=mxgraph.archimate3.application;appType=serv;archiType=rounded" vertex="1" parent="8IR9IB2kAjyOWW3M31Co-365">
          <mxGeometry x="20" y="150" width="150" height="75" as="geometry" />
        </mxCell>
        <mxCell id="8IR9IB2kAjyOWW3M31Co-366" value="System Monitoring&lt;br&gt;&lt;div&gt;&lt;br&gt;&lt;/div&gt;&lt;div&gt;&lt;br&gt;&lt;/div&gt;&lt;div&gt;&lt;br&gt;&lt;/div&gt;&lt;div&gt;&lt;br&gt;&lt;/div&gt;&lt;div&gt;&lt;br&gt;&lt;/div&gt;&lt;div&gt;&lt;br&gt;&lt;/div&gt;&lt;div&gt;&lt;br&gt;&lt;/div&gt;" style="html=1;outlineConnect=0;whiteSpace=wrap;fillColor=#99ffff;shape=mxgraph.archimate3.application;appType=comp;archiType=square;" vertex="1" parent="1">
          <mxGeometry x="865" y="1690" width="150" height="130" as="geometry" />
        </mxCell>
        <mxCell id="8IR9IB2kAjyOWW3M31Co-367" value="System&amp;nbsp;&lt;div&gt;Monitoring Service&lt;/div&gt;" style="html=1;outlineConnect=0;whiteSpace=wrap;fillColor=#99ffff;shape=mxgraph.archimate3.application;appType=serv;archiType=rounded" vertex="1" parent="1">
          <mxGeometry x="880" y="1771" width="120" height="39" as="geometry" />
        </mxCell>
        <mxCell id="8IR9IB2kAjyOWW3M31Co-368" value="Analytics &amp;amp; Visualization Service" style="html=1;outlineConnect=0;whiteSpace=wrap;fillColor=#99ffff;shape=mxgraph.archimate3.application;appType=serv;archiType=rounded" vertex="1" parent="1">
          <mxGeometry x="880" y="1720" width="120" height="39" as="geometry" />
        </mxCell>
        <mxCell id="8IR9IB2kAjyOWW3M31Co-369" value="System Administrator Console" style="html=1;outlineConnect=0;whiteSpace=wrap;fillColor=#99ffff;shape=mxgraph.archimate3.application;appType=interface;archiType=square;" vertex="1" parent="1">
          <mxGeometry x="130" y="1569" width="890" height="51" as="geometry" />
        </mxCell>
        <mxCell id="8IR9IB2kAjyOWW3M31Co-370" value="" style="edgeStyle=elbowEdgeStyle;html=1;endArrow=open;elbow=vertical;endFill=1;rounded=0;" edge="1" parent="1" target="8IR9IB2kAjyOWW3M31Co-369">
          <mxGeometry width="160" relative="1" as="geometry">
            <mxPoint x="270" y="1690" as="sourcePoint" />
            <mxPoint x="810" y="1750" as="targetPoint" />
          </mxGeometry>
        </mxCell>
        <mxCell id="8IR9IB2kAjyOWW3M31Co-371" value="" style="edgeStyle=elbowEdgeStyle;html=1;endArrow=open;elbow=vertical;endFill=1;rounded=0;exitX=0.5;exitY=0;exitDx=0;exitDy=0;exitPerimeter=0;" edge="1" parent="1" source="8IR9IB2kAjyOWW3M31Co-366" target="8IR9IB2kAjyOWW3M31Co-369">
          <mxGeometry width="160" relative="1" as="geometry">
            <mxPoint x="650" y="1750" as="sourcePoint" />
            <mxPoint x="570" y="1650" as="targetPoint" />
          </mxGeometry>
        </mxCell>
        <mxCell id="8IR9IB2kAjyOWW3M31Co-372" value="Web Console" style="html=1;outlineConnect=0;whiteSpace=wrap;fillColor=#99ffff;shape=mxgraph.archimate3.application;appType=interface;archiType=square;" vertex="1" parent="1">
          <mxGeometry x="1070" y="1690" width="400" height="35" as="geometry" />
        </mxCell>
        <mxCell id="8IR9IB2kAjyOWW3M31Co-373" value="" style="edgeStyle=elbowEdgeStyle;html=1;endArrow=open;elbow=vertical;endFill=0;dashed=1;startArrow=open;startFill=0;dashPattern=1 4;rounded=0;entryX=0;entryY=0.5;entryDx=0;entryDy=0;entryPerimeter=0;" edge="1" parent="1" source="8IR9IB2kAjyOWW3M31Co-369" target="8IR9IB2kAjyOWW3M31Co-312">
          <mxGeometry width="160" relative="1" as="geometry">
            <mxPoint x="1020" y="1623" as="sourcePoint" />
            <mxPoint x="930" y="1680" as="targetPoint" />
          </mxGeometry>
        </mxCell>
        <mxCell id="8IR9IB2kAjyOWW3M31Co-375" value="" style="edgeStyle=elbowEdgeStyle;html=1;endArrow=open;elbow=vertical;endFill=0;dashed=1;startArrow=open;startFill=0;dashPattern=1 4;rounded=0;" edge="1" parent="1" source="8IR9IB2kAjyOWW3M31Co-312">
          <mxGeometry width="160" relative="1" as="geometry">
            <mxPoint x="1000" y="1830" as="sourcePoint" />
            <mxPoint x="1271" y="1660" as="targetPoint" />
          </mxGeometry>
        </mxCell>
        <mxCell id="8IR9IB2kAjyOWW3M31Co-376" value="" style="edgeStyle=elbowEdgeStyle;html=1;endArrow=open;elbow=vertical;endFill=0;dashed=1;dashPattern=1 4;rounded=0;exitX=1;exitY=0.5;exitDx=0;exitDy=0;exitPerimeter=0;" edge="1" parent="1" source="8IR9IB2kAjyOWW3M31Co-366" target="8IR9IB2kAjyOWW3M31Co-363">
          <mxGeometry width="160" relative="1" as="geometry">
            <mxPoint x="830" y="1830" as="sourcePoint" />
            <mxPoint x="990" y="1830" as="targetPoint" />
          </mxGeometry>
        </mxCell>
        <mxCell id="8IR9IB2kAjyOWW3M31Co-378" value="" style="edgeStyle=elbowEdgeStyle;html=1;endArrow=open;elbow=vertical;endFill=0;dashed=1;dashPattern=1 4;rounded=0;exitX=0.5;exitY=1;exitDx=0;exitDy=0;exitPerimeter=0;entryX=0.5;entryY=0;entryDx=0;entryDy=0;entryPerimeter=0;" edge="1" parent="1" source="8IR9IB2kAjyOWW3M31Co-366" target="8IR9IB2kAjyOWW3M31Co-300">
          <mxGeometry width="160" relative="1" as="geometry">
            <mxPoint x="850" y="1860" as="sourcePoint" />
            <mxPoint x="1010" y="1860" as="targetPoint" />
          </mxGeometry>
        </mxCell>
        <mxCell id="8IR9IB2kAjyOWW3M31Co-379" value="" style="edgeStyle=elbowEdgeStyle;html=1;endArrow=block;elbow=vertical;endFill=0;dashed=1;rounded=0;exitX=1;exitY=0.25;exitDx=0;exitDy=0;exitPerimeter=0;" edge="1" parent="1" source="8IR9IB2kAjyOWW3M31Co-300" target="8IR9IB2kAjyOWW3M31Co-363">
          <mxGeometry width="160" relative="1" as="geometry">
            <mxPoint x="840" y="2050" as="sourcePoint" />
            <mxPoint x="1000" y="2050" as="targetPoint" />
          </mxGeometry>
        </mxCell>
        <mxCell id="8IR9IB2kAjyOWW3M31Co-380" value="" style="edgeStyle=elbowEdgeStyle;html=1;endArrow=open;elbow=vertical;endFill=0;dashed=1;startArrow=open;startFill=0;dashPattern=1 4;rounded=0;exitX=0.5;exitY=0;exitDx=0;exitDy=0;exitPerimeter=0;entryX=0.5;entryY=1;entryDx=0;entryDy=0;entryPerimeter=0;" edge="1" parent="1" source="8IR9IB2kAjyOWW3M31Co-164" target="8IR9IB2kAjyOWW3M31Co-363">
          <mxGeometry width="160" relative="1" as="geometry">
            <mxPoint x="840" y="2170" as="sourcePoint" />
            <mxPoint x="1000" y="2170" as="targetPoint" />
          </mxGeometry>
        </mxCell>
        <mxCell id="8IR9IB2kAjyOWW3M31Co-381" value="API Gateway" style="html=1;outlineConnect=0;whiteSpace=wrap;fillColor=#99ffff;shape=mxgraph.archimate3.application;appType=comp;archiType=square;rotation=90;" vertex="1" parent="1">
          <mxGeometry x="1158.75" y="1941.25" width="787.5" height="50" as="geometry" />
        </mxCell>
        <mxCell id="8IR9IB2kAjyOWW3M31Co-382" value="" style="edgeStyle=elbowEdgeStyle;html=1;endArrow=open;endFill=0;dashed=1;startArrow=open;startFill=0;dashPattern=1 4;rounded=0;endSize=6;strokeWidth=1;" edge="1" parent="1" source="8IR9IB2kAjyOWW3M31Co-363">
          <mxGeometry width="160" relative="1" as="geometry">
            <mxPoint x="880" y="1950" as="sourcePoint" />
            <mxPoint x="1528" y="1970" as="targetPoint" />
          </mxGeometry>
        </mxCell>
        <mxCell id="8IR9IB2kAjyOWW3M31Co-384" value="" style="edgeStyle=elbowEdgeStyle;html=1;endArrow=open;endFill=0;dashed=1;startArrow=open;startFill=0;dashPattern=1 4;rounded=0;endSize=6;strokeWidth=1;exitX=1;exitY=0.5;exitDx=0;exitDy=0;exitPerimeter=0;" edge="1" parent="1">
          <mxGeometry width="160" relative="1" as="geometry">
            <mxPoint x="1488" y="2229.5" as="sourcePoint" />
            <mxPoint x="1529" y="1970" as="targetPoint" />
          </mxGeometry>
        </mxCell>
        <mxCell id="8IR9IB2kAjyOWW3M31Co-385" value="Load Balancer" style="html=1;outlineConnect=0;whiteSpace=wrap;fillColor=#99ffff;shape=mxgraph.archimate3.application;appType=comp;archiType=square;rotation=90;" vertex="1" parent="1">
          <mxGeometry x="1259.5" y="1941" width="787.5" height="50" as="geometry" />
        </mxCell>
        <mxCell id="8IR9IB2kAjyOWW3M31Co-386" value="" style="edgeStyle=elbowEdgeStyle;html=1;endArrow=open;elbow=vertical;endFill=1;rounded=0;exitX=0.5;exitY=0;exitDx=0;exitDy=0;exitPerimeter=0;" edge="1" parent="1" source="8IR9IB2kAjyOWW3M31Co-381" target="8IR9IB2kAjyOWW3M31Co-385">
          <mxGeometry width="160" relative="1" as="geometry">
            <mxPoint x="1080" y="1970" as="sourcePoint" />
            <mxPoint x="1240" y="1970" as="targetPoint" />
          </mxGeometry>
        </mxCell>
      </root>
    </mxGraphModel>
  </diagram>
</mxfile>
